<svg xmlns="http://www.w3.org/2000/svg" xmlns:xlink="http://www.w3.org/1999/xlink" width="500" zoomAndPan="magnify" viewBox="0 0 375 374.999991" height="500" preserveAspectRatio="xMidYMid meet" version="1.0"><defs><clipPath id="id1"><path d="M 27 57 L 347.933594 57 L 347.933594 318.1875 L 27 318.1875 Z M 27 57 " clip-rule="nonzero"/></clipPath></defs><g clip-path="url(#id1)"><path fill="#ffffff" d="M 97.484375 317.886719 C 80.453125 316.855469 70.664062 315.277344 60.527344 311.917969 C 55.109375 310.125 49.480469 307.476562 45.726562 304.957031 C 42.453125 302.757812 36.164062 296.359375 33.972656 292.988281 C 30.554688 287.738281 28.457031 282.214844 27.808594 276.757812 C 26.960938 269.648438 29.617188 259.589844 34.203125 252.546875 C 38.90625 245.320312 48.355469 237.203125 57.457031 232.570312 C 60.886719 230.824219 71.921875 226.269531 75.179688 225.257812 C 75.683594 225.097656 75.300781 224.304688 73.113281 220.988281 C 69.652344 215.746094 66.707031 210.015625 64.089844 203.417969 C 61.542969 197.015625 59.65625 190.558594 58.210938 183.332031 C 56.222656 173.355469 56.125 171.851562 56.300781 152.914062 C 56.476562 134.101562 56.492188 124.886719 56.359375 119.402344 C 56.292969 116.613281 56.492188 115.074219 57.371094 111.609375 C 58.226562 108.214844 58.773438 106.851562 59.929688 105.230469 C 62.394531 101.773438 64.484375 99.972656 67.863281 98.390625 C 70.234375 97.28125 71.667969 96.863281 73.707031 96.695312 C 75.636719 96.53125 77.195312 96.101562 79.183594 95.183594 C 84.917969 92.539062 98.871094 88.34375 115.183594 84.359375 C 123.636719 82.296875 148.671875 77.203125 160.253906 75.195312 C 173.910156 72.824219 198.695312 69.71875 208.78125 69.117188 C 214.183594 68.792969 217.605469 68.792969 222.191406 69.105469 C 234.476562 69.941406 242.738281 71.722656 248.773438 74.84375 C 250.324219 75.644531 252.464844 77.0625 253.53125 77.996094 C 254.597656 78.929688 255.546875 79.691406 255.640625 79.691406 C 255.734375 79.691406 256.449219 78.71875 257.234375 77.535156 C 259.574219 73.988281 263.410156 69.652344 266.628906 66.921875 C 272.21875 62.183594 277.839844 59.269531 284.035156 57.898438 C 290.679688 56.433594 295.363281 57.1875 300.386719 60.546875 C 303.457031 62.597656 308.363281 67.378906 310.984375 70.871094 C 314.679688 75.792969 318.234375 84.722656 321.089844 96.25 C 321.828125 99.226562 322.6875 103.164062 323 105.003906 C 323.929688 110.46875 324.425781 120.582031 324.199219 129.449219 C 324.023438 136.320312 323.824219 138.488281 323.015625 142.347656 C 321.777344 148.246094 318.875 157.0625 316.808594 161.179688 C 314.894531 164.992188 311.894531 169.679688 308.800781 173.675781 C 307.558594 175.28125 306.609375 176.640625 306.691406 176.699219 C 306.769531 176.757812 307.9375 177.019531 309.28125 177.28125 C 310.628906 177.539062 313.839844 178.65625 316.425781 179.761719 C 319.007812 180.863281 322.898438 182.472656 325.070312 183.332031 C 327.242188 184.195312 330 185.421875 331.207031 186.0625 C 334.125 187.613281 340.019531 193.242188 342.316406 196.675781 C 346.011719 202.191406 347.917969 209.386719 347.4375 216.003906 C 346.835938 224.300781 345.179688 229.945312 341.730469 235.433594 C 336.023438 244.515625 327.792969 252.21875 315.863281 259.644531 C 308.996094 263.921875 303.742188 266.707031 294.085938 271.199219 C 267.105469 283.753906 262.652344 285.390625 226.59375 296.035156 C 208.589844 301.347656 194.542969 305.089844 181.09375 308.152344 C 171.5 310.335938 154.230469 313.765625 146.90625 314.9375 C 139.054688 316.191406 128.972656 317.28125 120.835938 317.753906 C 114.753906 318.097656 102.230469 318.175781 97.484375 317.886719 Z M 123.984375 309.699219 C 131.34375 308.976562 141.316406 307.585938 148.605469 306.257812 C 160.519531 304.089844 180.195312 299.773438 193.710938 296.363281 C 201.121094 294.492188 241.847656 282.914062 251.40625 279.960938 C 259.644531 277.414062 268.945312 273.84375 279.78125 269.066406 C 298.449219 260.84375 311.507812 254 319.847656 248.082031 C 323.800781 245.277344 331.03125 238.15625 333.945312 234.199219 C 336.398438 230.871094 338.632812 226.390625 339.558594 222.941406 C 339.894531 221.703125 340.261719 218.492188 340.375 215.804688 C 340.535156 211.976562 340.449219 210.40625 339.964844 208.523438 C 338.84375 204.171875 337.257812 201.425781 333.945312 198.121094 C 332.273438 196.449219 329.972656 194.464844 328.835938 193.71875 C 326.789062 192.371094 315.648438 187.585938 309.851562 185.5625 C 308.152344 184.96875 305.132812 184.316406 302.898438 184.054688 C 298.953125 183.597656 298.953125 183.597656 294.441406 186.332031 C 288.601562 189.875 285.207031 191.472656 282.414062 191.992188 C 280.441406 192.359375 272.84375 192.300781 271.386719 191.90625 C 271.046875 191.8125 270.097656 193.703125 268.460938 197.769531 C 265.4375 205.25 261.03125 214.375 258.910156 217.53125 C 254.140625 224.636719 244.808594 234.167969 236.480469 240.445312 C 228.832031 246.207031 216.960938 252.429688 207.980469 255.375 C 204.722656 256.445312 197.597656 258.261719 191.078125 259.679688 C 177.585938 262.617188 174.3125 263.195312 168.710938 263.644531 C 163.964844 264.023438 145.378906 263.574219 138.566406 262.914062 C 130.558594 262.136719 124.003906 260.441406 116.847656 257.296875 C 100.667969 250.191406 90.246094 242.3125 78.449219 228.277344 C 77.5625 227.222656 77.5625 227.222656 68.785156 231.570312 C 63.957031 233.960938 58.796875 236.691406 57.320312 237.644531 C 47.488281 243.980469 39.671875 252.234375 36.574219 259.558594 C 34.238281 265.074219 33.109375 271.671875 33.734375 276.164062 C 34.863281 284.277344 40.144531 292.898438 47.300781 298.316406 C 52.492188 302.246094 61.617188 305.890625 71.019531 307.785156 C 76.453125 308.878906 83.429688 309.777344 90.117188 310.242188 C 97.089844 310.722656 116.730469 310.410156 123.984375 309.699219 Z M 171.777344 254.453125 C 178.4375 253.597656 199.328125 249.324219 204.464844 247.765625 C 209.398438 246.273438 214.082031 244.320312 219.234375 241.609375 C 227.183594 237.425781 231.546875 234.453125 238.078125 228.765625 C 242.425781 224.980469 248.820312 218.097656 251.464844 214.355469 C 253.699219 211.195312 256.074219 206.582031 259.316406 199.101562 C 262.144531 192.570312 263.753906 187.9375 265.121094 182.390625 C 266.921875 175.082031 267.203125 173.125 267.433594 166.433594 C 267.617188 161.136719 267.507812 158.546875 266.886719 153.101562 C 266.464844 149.386719 266.027344 143.894531 265.917969 140.898438 C 265.804688 137.902344 265.472656 133.679688 265.171875 131.511719 C 264.867188 129.34375 264.335938 124.695312 263.984375 121.1875 C 263.632812 117.675781 262.9375 113.253906 262.441406 111.367188 C 261.273438 106.9375 259.574219 101.878906 258.289062 99.03125 C 257.277344 96.78125 257.277344 96.78125 253.683594 100.355469 C 248.105469 105.910156 237.464844 112.960938 226.789062 118.179688 C 216.644531 123.136719 205.417969 126.984375 189.011719 131.128906 C 177.128906 134.128906 170.191406 135.605469 157.25 137.886719 C 151.253906 138.941406 142.375 140.558594 137.515625 141.472656 C 119.519531 144.863281 113.503906 145.546875 101.433594 145.558594 C 94.871094 145.566406 92.363281 145.410156 88.089844 144.730469 C 81.605469 143.699219 75.617188 142.355469 72.8125 141.296875 C 70.011719 140.242188 66.832031 138.15625 63.933594 135.472656 C 61.578125 133.292969 61.578125 133.292969 61.796875 140.945312 C 62.613281 169.789062 63.179688 175.183594 66.71875 187.835938 C 69.886719 199.15625 75.75 211.238281 82.117188 219.5625 C 87.140625 226.132812 94.59375 233.601562 100.679688 238.160156 C 107.6875 243.410156 120.40625 249.722656 128.898438 252.171875 C 135.210938 253.988281 144.957031 254.867188 160.316406 254.992188 C 164.6875 255.03125 168.808594 254.835938 171.777344 254.453125 Z M 182.539062 209.410156 C 180.230469 208.675781 176.425781 205.742188 174.886719 203.507812 C 174.214844 202.539062 173.613281 201.574219 173.539062 201.371094 C 173.464844 201.15625 172.34375 201.386719 170.878906 201.917969 C 169.488281 202.425781 166.613281 203.199219 164.492188 203.636719 C 161.273438 204.304688 159.820312 204.402344 155.746094 204.234375 C 153.058594 204.125 149.929688 203.832031 148.792969 203.585938 C 146.179688 203.019531 144.054688 201.953125 143.507812 200.933594 C 142.785156 199.585938 143.507812 199.347656 146.9375 199.808594 C 150.867188 200.335938 155.429688 200.339844 159.195312 199.816406 C 161.953125 199.433594 167.390625 197.890625 170.386719 196.640625 C 171.710938 196.085938 171.710938 196.085938 170.410156 194.277344 C 167.082031 189.648438 165.148438 182.867188 165.402344 176.730469 C 165.523438 173.878906 165.726562 172.960938 166.660156 171.097656 C 168.023438 168.375 169.636719 167.183594 171.976562 167.183594 C 174.960938 167.183594 178.863281 169.894531 180.3125 172.976562 C 180.738281 173.875 181.289062 176.058594 181.546875 177.820312 C 181.914062 180.363281 181.914062 182.050781 181.546875 185.976562 C 181.292969 188.703125 181.15625 191.003906 181.246094 191.09375 C 181.507812 191.351562 188.667969 185.808594 190.488281 183.9375 C 192.027344 182.351562 192.109375 182.171875 191.5625 181.558594 C 190.339844 180.167969 188.929688 176.746094 188.371094 173.804688 C 187.402344 168.6875 188.226562 163.988281 190.734375 160.375 C 192.386719 157.992188 195.464844 156.476562 197.730469 156.929688 C 198.355469 157.054688 199.507812 157.765625 200.289062 158.511719 C 201.894531 160.035156 202.722656 162.34375 203.199219 166.621094 C 203.488281 169.25 203.488281 169.25 205.972656 165.496094 C 209.105469 160.757812 210.957031 157.132812 210.875 155.894531 C 210.832031 155.253906 211.199219 154.566406 211.976562 153.832031 C 212.621094 153.222656 213.546875 151.828125 214.039062 150.730469 C 214.941406 148.707031 215.699219 148.429688 215.699219 150.121094 C 215.699219 150.625 215.8125 151.039062 215.945312 151.039062 C 216.082031 151.039062 217.078125 150.355469 218.160156 149.523438 C 220.804688 147.488281 222.160156 145.457031 222.359375 143.242188 C 222.5625 141.015625 221.886719 139.929688 220.515625 140.273438 C 218.234375 140.84375 214.140625 145.199219 212.328125 148.972656 C 211.734375 150.210938 211.042969 152.328125 210.792969 153.667969 C 210.539062 155.011719 210.109375 156.347656 209.839844 156.640625 C 209.078125 157.457031 208.300781 156.574219 207.820312 154.34375 C 207.003906 150.527344 208.707031 145.421875 212.25 141.070312 C 215.5 137.085938 219.785156 134.824219 222.964844 135.421875 C 225.046875 135.8125 227.164062 138.082031 227.941406 140.761719 C 229.644531 146.613281 226.449219 152.007812 219.105469 155.679688 C 215.566406 157.453125 215.566406 157.453125 214.183594 161.097656 C 212.539062 165.449219 211.269531 168.015625 209.109375 171.363281 C 207.503906 173.851562 207.503906 173.851562 209.066406 174.308594 C 211.070312 174.894531 213.539062 176.324219 215.324219 177.933594 C 217.203125 179.632812 218.464844 182.554688 218.140625 184.46875 C 217.785156 186.574219 215.957031 189.195312 213.964844 190.457031 C 213.003906 191.066406 211.347656 191.742188 210.28125 191.964844 C 206.578125 192.730469 200.683594 190.988281 197.476562 188.171875 C 196.140625 187 196.140625 187 194.550781 188.363281 C 193.671875 189.113281 191.445312 190.863281 189.601562 192.257812 C 186.246094 194.785156 186.246094 194.785156 188.851562 195.257812 C 192.011719 195.832031 195.039062 197.25 196.308594 198.761719 C 197.339844 199.980469 197.867188 201.980469 197.519531 203.351562 C 197.402344 203.828125 196.800781 204.910156 196.1875 205.757812 C 195.417969 206.824219 194.289062 207.683594 192.519531 208.554688 C 190.40625 209.589844 189.480469 209.824219 187.140625 209.894531 C 185.429688 209.941406 183.613281 209.753906 182.539062 209.410156 Z M 190.585938 203.558594 C 191.34375 203.179688 192.070312 202.699219 192.195312 202.5 C 192.679688 201.710938 189.949219 200.933594 184.816406 200.394531 C 181.894531 200.085938 179.421875 199.917969 179.320312 200.019531 C 178.71875 200.621094 182.683594 203.632812 184.832031 204.210938 C 186.832031 204.75 188.613281 204.550781 190.585938 203.558594 Z M 175.269531 188.695312 C 175.957031 182.429688 176.007812 179.191406 175.453125 176.601562 C 175.152344 175.214844 174.707031 174.421875 173.75 173.582031 C 173.03125 172.953125 172.304688 172.4375 172.128906 172.4375 C 171.496094 172.4375 170.957031 173.503906 170.542969 175.570312 C 169.914062 178.6875 170.625 183.617188 172.5625 189.59375 C 173.445312 192.320312 174.28125 194.429688 174.421875 194.289062 C 174.5625 194.144531 174.945312 191.632812 175.269531 188.695312 Z M 211.398438 185.183594 C 211.902344 184.710938 212.316406 184.132812 212.316406 183.898438 C 212.316406 183.105469 210.261719 181.503906 207.804688 180.378906 C 203.867188 178.582031 204.003906 178.574219 202.003906 180.710938 C 200.019531 182.832031 200.046875 183.03125 202.472656 184.527344 C 205.589844 186.453125 209.722656 186.757812 211.398438 185.183594 Z M 281.714844 185.167969 C 283.476562 184.863281 285.171875 184.132812 288.320312 182.328125 C 294.804688 178.609375 298.515625 175.75 301.398438 172.261719 C 309.363281 162.609375 312.988281 155.199219 315.902344 142.585938 C 316.8125 138.640625 316.964844 137.117188 317.101562 130.328125 C 317.289062 121.207031 316.738281 111.566406 315.679688 105.503906 C 314.332031 97.757812 310.8125 85.3125 308.523438 80.222656 C 306.789062 76.351562 304.175781 72.691406 300.652344 69.171875 C 297.148438 65.679688 293.910156 63.683594 291.125 63.304688 C 288.800781 62.988281 283.84375 63.761719 280.386719 64.988281 C 278.8125 65.542969 276.425781 66.621094 275.085938 67.375 C 269.972656 70.253906 264.253906 75.578125 259.953125 81.464844 C 258.238281 83.808594 258.238281 83.808594 259.363281 85.878906 C 259.980469 87.015625 260.804688 88.851562 261.191406 89.953125 C 261.578125 91.058594 262.75 93.703125 263.792969 95.835938 C 264.835938 97.96875 265.695312 99.980469 265.699219 100.308594 C 265.703125 100.636719 266.335938 99.722656 267.109375 98.273438 C 269 94.726562 270.671875 92.726562 273.585938 90.542969 C 276.480469 88.371094 279.488281 87.097656 283.746094 86.234375 C 287.765625 85.417969 290.675781 85.695312 293.726562 87.191406 C 296.230469 88.414062 299.152344 91.234375 300.746094 93.957031 C 302.386719 96.757812 304.757812 103.167969 306.089844 108.378906 C 308.515625 117.90625 309.308594 125.386719 308.546875 131.695312 C 307.609375 139.484375 304.171875 150.550781 300.921875 156.246094 C 297.273438 162.636719 288.316406 170.085938 281.855469 172.097656 C 280.511719 172.515625 278.386719 172.878906 277.136719 172.902344 C 274.863281 172.941406 274.863281 172.941406 273.980469 178.039062 C 273.492188 180.84375 273.019531 183.589844 272.925781 184.144531 C 272.777344 185.011719 272.902344 185.167969 273.828125 185.308594 C 275.988281 185.632812 279.40625 185.570312 281.714844 185.167969 Z M 196.332031 173.390625 C 196.828125 172.351562 197.347656 170.695312 197.492188 169.710938 C 197.8125 167.429688 197.378906 163.328125 196.722656 162.429688 C 196.234375 161.765625 196.175781 161.773438 195.273438 162.617188 C 194.757812 163.105469 193.941406 164.371094 193.460938 165.433594 C 192.707031 167.101562 192.582031 167.96875 192.582031 171.6875 C 192.582031 174.0625 192.714844 176.328125 192.878906 176.722656 C 193.152344 177.394531 193.242188 177.371094 194.296875 176.355469 C 194.917969 175.765625 195.832031 174.429688 196.332031 173.390625 Z M 282.328125 165.886719 C 284.90625 164.550781 288.386719 161.832031 291.445312 158.757812 C 293.367188 156.828125 294.558594 155.1875 295.824219 152.722656 C 298.851562 146.839844 301.410156 138.011719 302.207031 130.722656 C 302.53125 127.707031 302.53125 125.621094 302.195312 122.085938 C 301.191406 111.484375 297.078125 98.148438 293.488281 93.851562 C 292.039062 92.113281 289.890625 90.976562 287.558594 90.710938 C 285.304688 90.453125 280.773438 91.410156 278.105469 92.707031 C 276.917969 93.28125 274.964844 94.777344 273.554688 96.183594 C 271.789062 97.941406 270.628906 99.550781 269.511719 101.792969 C 268.648438 103.519531 267.949219 105.378906 267.949219 105.921875 C 267.957031 106.46875 268.371094 108.210938 268.875 109.800781 C 269.386719 111.386719 270.226562 115.78125 270.75 119.5625 C 271.269531 123.339844 271.960938 128.210938 272.285156 130.378906 C 272.609375 132.546875 273.035156 137.023438 273.238281 140.328125 C 273.441406 143.632812 273.953125 149.039062 274.378906 152.34375 C 274.804688 155.648438 275.195312 160.285156 275.253906 162.648438 C 275.347656 166.40625 275.441406 166.972656 276.039062 167.183594 C 277.132812 167.570312 280.371094 166.902344 282.328125 165.886719 Z M 135.824219 129.441406 C 142.851562 128.523438 155.285156 126.421875 160.257812 125.308594 C 165.191406 124.203125 177.539062 120.488281 182.234375 118.699219 C 185.03125 117.632812 186.378906 116.734375 185.898438 116.257812 C 185.78125 116.140625 183.347656 116.644531 180.488281 117.375 C 172.351562 119.460938 169.089844 120.125 155.007812 122.542969 C 147.765625 123.785156 138.542969 125.378906 134.507812 126.082031 C 129.28125 126.992188 126.019531 127.363281 123.128906 127.367188 C 119.730469 127.371094 119.039062 127.277344 118.839844 126.765625 C 118.683594 126.351562 119.121094 125.667969 120.183594 124.652344 C 121.054688 123.828125 121.679688 123.066406 121.578125 122.964844 C 121.242188 122.632812 117.984375 124.753906 117.351562 125.71875 C 116.867188 126.457031 116.820312 126.84375 117.148438 127.558594 C 117.375 128.054688 117.957031 128.722656 118.441406 129.035156 C 120.585938 130.449219 126.996094 130.59375 135.824219 129.441406 Z M 72.519531 123.523438 C 74.054688 122.621094 76.324219 121.414062 77.5625 120.84375 C 81.59375 118.992188 104.46875 110.253906 110.453125 108.28125 C 117.644531 105.90625 146.152344 98.0625 151.464844 96.996094 C 155.714844 96.144531 173.125 93.589844 189.199219 91.457031 C 199.15625 90.136719 199.648438 90.109375 215.335938 89.929688 C 230.117188 89.761719 231.789062 89.808594 237.511719 90.550781 C 242.605469 91.210938 244.101562 91.550781 245.957031 92.46875 C 247.195312 93.082031 248.734375 93.921875 249.378906 94.335938 C 250.546875 95.089844 250.546875 95.089844 251.625 93.535156 C 252.488281 92.292969 252.734375 91.484375 252.847656 89.460938 C 252.960938 87.472656 252.828125 86.628906 252.222656 85.449219 C 250.789062 82.636719 247.191406 80.019531 242.53125 78.398438 C 239.15625 77.226562 235.40625 76.46875 229.195312 75.707031 C 225.261719 75.226562 222.214844 75.136719 215.320312 75.289062 C 206.273438 75.496094 204.378906 75.6875 182.246094 78.585938 C 164.007812 80.972656 163.1875 81.109375 130 87.414062 C 113.101562 90.625 90.664062 95.808594 83.738281 98.101562 C 76.804688 100.394531 70.425781 103.523438 67.925781 105.855469 C 66.734375 106.96875 64.851562 110.941406 64.050781 114.03125 C 62.90625 118.4375 63.527344 122.78125 65.738281 125.832031 C 66.882812 127.414062 66.882812 127.414062 68.304688 126.289062 C 69.085938 125.671875 70.984375 124.425781 72.519531 123.523438 Z M 103.875 121.925781 C 109.828125 120.054688 125.804688 115.6875 152.71875 108.578125 C 158.910156 106.941406 166.824219 105.09375 170.300781 104.46875 C 173.78125 103.84375 179.625 102.757812 183.289062 102.050781 C 191.265625 100.515625 196.402344 99.792969 203.574219 99.1875 C 207.617188 98.851562 210.019531 98.84375 213.378906 99.164062 C 218.144531 99.617188 220.210938 100.136719 220.210938 100.882812 C 220.210938 101.828125 215.402344 105.910156 211.796875 108.027344 C 207.960938 110.28125 201.1875 113.441406 196.902344 114.972656 C 195.558594 115.457031 194.210938 116.078125 193.910156 116.359375 C 193.433594 116.796875 193.460938 116.867188 194.109375 116.867188 C 196.667969 116.867188 205.410156 113.570312 214.007812 109.359375 C 221.265625 105.804688 223.589844 103.679688 223.589844 100.601562 C 223.589844 98.09375 221.628906 96.804688 216.421875 95.882812 C 212.203125 95.136719 207.84375 95.011719 201.226562 95.4375 C 193.097656 95.964844 187.472656 96.746094 174.085938 99.207031 C 163.691406 101.113281 157.421875 102.605469 144.660156 106.203125 C 134.433594 109.082031 111.328125 116.304688 107.261719 117.886719 C 102.121094 119.886719 94.667969 123.519531 94.667969 124.015625 C 94.667969 124.660156 96.5 124.246094 103.875 121.925781 Z M 158.753906 114.832031 C 168.90625 112.800781 168.960938 112.789062 166.65625 112.992188 C 163.433594 113.277344 150.140625 115.742188 149.757812 116.125 C 149.523438 116.363281 149.585938 116.492188 149.941406 116.492188 C 150.242188 116.488281 154.207031 115.746094 158.753906 114.832031 Z M 158.753906 114.832031 " fill-opacity="1" fill-rule="nonzero"/></g></svg>