<svg xmlns="http://www.w3.org/2000/svg" xmlns:xlink="http://www.w3.org/1999/xlink" width="500" zoomAndPan="magnify" viewBox="0 0 375 374.999991" height="500" preserveAspectRatio="xMidYMid meet" version="1.0"><path fill="#ffffff" d="M 199.804688 26.414062 C 200.625 22.050781 199.324219 17.519531 198.492188 12.9375 C 197.78125 9.039062 197.808594 5.179688 199.921875 1.671875 C 200.367188 0.929688 201.445312 0.5625 202.230469 0.0234375 C 202.359375 0.96875 202.839844 2.042969 202.550781 2.839844 C 201.308594 6.300781 201.429688 9.722656 202.15625 13.242188 C 202.691406 15.828125 203.332031 18.460938 203.289062 21.0625 C 203.25 23.433594 202.421875 25.808594 201.769531 28.132812 C 201.621094 28.667969 200.785156 29.007812 200.265625 29.4375 C 200.113281 28.820312 199.941406 28.203125 199.816406 27.578125 C 199.78125 27.191406 199.78125 26.804688 199.804688 26.414062 Z M 199.804688 26.414062 " fill-opacity="1" fill-rule="nonzero"/><path fill="#ffffff" d="M 147.421875 74.878906 C 148.441406 65.828125 145.320312 57.824219 139.882812 50.292969 C 137.039062 46.351562 134.921875 41.773438 133.128906 37.222656 C 132.113281 34.648438 132.316406 31.554688 132.179688 28.6875 C 132.1875 27.605469 132.484375 26.609375 133.078125 25.707031 C 133.578125 24.917969 134.53125 24.417969 135.289062 23.789062 C 135.265625 24.664062 135.410156 25.574219 135.191406 26.394531 C 134.265625 29.875 134.464844 33.316406 136.195312 36.402344 C 138.445312 40.488281 140.933594 44.417969 143.667969 48.195312 C 147.257812 53.078125 150.757812 58.027344 151.3125 64.1875 C 151.6875 68.339844 151.167969 72.578125 150.898438 76.773438 C 150.761719 77.84375 150.378906 78.816406 149.753906 79.695312 C 149.167969 80.601562 148.273438 81.304688 147.515625 82.097656 C 147.484375 81.117188 147.4375 80.140625 147.425781 79.160156 C 147.410156 77.84375 147.421875 76.519531 147.421875 74.878906 Z M 147.421875 74.878906 " fill-opacity="1" fill-rule="nonzero"/><path fill="#ffffff" d="M 270.355469 64.59375 C 270.550781 70.226562 268.949219 75.441406 266.457031 80.355469 C 263.382812 86.324219 261.0625 92.578125 259.496094 99.109375 C 259.246094 99.835938 258.921875 100.53125 258.523438 101.191406 C 258.339844 100.40625 257.996094 99.625 257.996094 98.84375 C 258 92.789062 258.796875 86.875 261.734375 81.476562 C 263.710938 77.949219 265.070312 74.203125 265.820312 70.230469 C 266.566406 66.261719 266.664062 62.273438 266.109375 58.269531 C 265.921875 56.246094 266.050781 54.242188 266.492188 52.257812 C 266.625 51.523438 267.71875 50.96875 268.378906 50.332031 C 268.695312 51.050781 269.214844 51.746094 269.292969 52.492188 C 269.707031 56.519531 270.011719 60.558594 270.355469 64.59375 Z M 270.355469 64.59375 " fill-opacity="1" fill-rule="nonzero"/><path fill="#ffffff" d="M 291.46875 357.378906 L 290.675781 356.777344 C 290.847656 356.625 290.996094 356.40625 291.199219 356.324219 C 294.511719 354.992188 297.824219 353.65625 301.160156 352.386719 C 301.449219 352.277344 302.183594 352.554688 302.226562 352.761719 C 302.273438 353.246094 302.1875 353.703125 301.96875 354.136719 C 301.890625 354.332031 301.558594 354.472656 301.316406 354.542969 C 298.0625 355.492188 294.796875 356.421875 291.46875 357.378906 Z M 291.46875 357.378906 " fill-opacity="1" fill-rule="nonzero"/><path fill="#ffffff" d="M 261.808594 333.4375 C 263.382812 333.238281 264.957031 333 266.535156 332.886719 C 266.757812 332.867188 267.023438 333.433594 267.269531 333.730469 C 267 333.882812 266.730469 334.164062 266.457031 334.171875 C 264.914062 334.214844 263.367188 334.195312 261.824219 334.195312 Z M 261.808594 333.4375 " fill-opacity="1" fill-rule="nonzero"/><path fill="#ffffff" d="M 46.265625 308.3125 C 45.429688 308.652344 44.953125 309.039062 44.652344 308.929688 C 44.011719 308.628906 43.410156 308.257812 42.847656 307.824219 C 43.316406 307.449219 43.871094 306.699219 44.230469 306.785156 C 44.863281 306.9375 45.371094 307.597656 46.265625 308.3125 Z M 46.265625 308.3125 " fill-opacity="1" fill-rule="nonzero"/><path fill="#ffffff" d="M 39.140625 307.832031 C 39.867188 308.445312 40.398438 308.6875 40.59375 309.09375 C 41.292969 310.582031 41.898438 312.117188 42.464844 313.660156 C 42.515625 313.789062 42.015625 314.117188 41.773438 314.355469 C 40.558594 312.84375 39.273438 311.378906 38.199219 309.777344 C 38.015625 309.507812 38.730469 308.640625 39.140625 307.832031 Z M 39.140625 307.832031 " fill-opacity="1" fill-rule="nonzero"/><path fill="#ffffff" d="M 37.726562 315.730469 C 37.320312 315.917969 36.855469 316.230469 36.78125 316.152344 C 35.75 315.144531 34.785156 314.078125 33.882812 312.953125 C 33.75 312.785156 34.160156 311.90625 34.503906 311.734375 C 35.003906 311.585938 35.449219 311.683594 35.835938 312.035156 C 36.523438 313.132812 37.039062 314.339844 37.726562 315.730469 Z M 37.726562 315.730469 " fill-opacity="1" fill-rule="nonzero"/><path fill="#ffffff" d="M 26.734375 311.632812 C 27.242188 310.871094 27.578125 309.980469 28.222656 309.546875 C 28.554688 309.324219 29.972656 309.894531 29.980469 310.136719 C 30.097656 313.566406 32.503906 315.605469 34.460938 317.949219 C 35.085938 318.699219 35.394531 319.710938 35.851562 320.601562 C 34.832031 320.324219 33.589844 320.324219 32.84375 319.710938 C 31.09375 318.261719 29.496094 316.65625 28.050781 314.902344 C 27.367188 314.082031 27.195312 312.835938 26.734375 311.632812 Z M 26.734375 311.632812 " fill-opacity="1" fill-rule="nonzero"/><path fill="#ffffff" d="M 257.613281 331.476562 L 256.066406 330.992188 C 256.519531 330.582031 257.023438 330.242188 257.570312 329.972656 C 259.230469 329.40625 260.914062 328.945312 262.632812 328.589844 C 263.132812 328.492188 263.757812 329.019531 264.328125 329.261719 C 263.960938 329.683594 263.660156 330.371094 263.222656 330.476562 C 261.4375 330.898438 259.609375 331.136719 257.613281 331.476562 Z M 257.613281 331.476562 " fill-opacity="1" fill-rule="nonzero"/><path fill="#ffffff" d="M 250.53125 330.183594 L 246.996094 329.203125 C 247.96875 328.714844 248.976562 328.304688 250.015625 327.964844 C 254.765625 326.773438 259.660156 325.992188 263.5 322.523438 C 263.78125 322.269531 264.417969 322.417969 264.890625 322.378906 C 264.933594 323.007812 265.257812 323.953125 264.96875 324.210938 C 263.488281 325.527344 262.011719 327.125 260.230469 327.765625 C 257.050781 328.910156 253.648438 329.441406 250.53125 330.183594 Z M 250.53125 330.183594 " fill-opacity="1" fill-rule="nonzero"/><path fill="#ffffff" d="M 88.402344 219.515625 C 87.957031 220.195312 87.714844 220.566406 87.472656 220.941406 C 86.792969 219.875 86.179688 218.773438 85.632812 217.632812 C 85.539062 217.421875 86.289062 216.84375 86.648438 216.4375 Z M 88.402344 219.515625 " fill-opacity="1" fill-rule="nonzero"/><path fill="#ffffff" d="M 81.207031 220.984375 C 81.992188 220.109375 82.449219 219.1875 82.953125 219.160156 C 83.46875 219.132812 84.371094 219.902344 84.507812 220.46875 C 85.046875 222.683594 85.363281 224.957031 85.71875 227.214844 C 85.726562 227.609375 85.679688 227.996094 85.582031 228.378906 C 85.207031 228.214844 84.636719 228.148438 84.496094 227.871094 C 83.367188 225.628906 82.324219 223.351562 81.207031 220.984375 Z M 81.207031 220.984375 " fill-opacity="1" fill-rule="nonzero"/><path fill="#ffffff" d="M 77.464844 219.746094 C 77.890625 220.144531 78.523438 220.460938 78.710938 220.949219 C 80.507812 225.625 82.226562 230.328125 83.949219 235.03125 C 84.027344 235.246094 83.910156 235.53125 83.882812 235.785156 C 83.601562 235.667969 83.207031 235.628906 83.050781 235.417969 C 82.339844 234.519531 81.71875 233.558594 81.195312 232.539062 C 79.667969 229.175781 78.191406 225.789062 76.824219 222.359375 C 76.53125 221.636719 76.78125 220.699219 76.78125 219.859375 Z M 77.464844 219.746094 " fill-opacity="1" fill-rule="nonzero"/><path fill="#ffffff" d="M 50.089844 172.113281 C 50.5 172.644531 51.074219 173.125 51.28125 173.730469 C 52.050781 175.96875 52.800781 178.222656 53.382812 180.519531 C 62.195312 215.203125 76.914062 246.988281 99.742188 274.75 C 106.058594 282.433594 112.726562 289.832031 119.226562 297.363281 C 119.648438 297.816406 120.035156 298.292969 120.394531 298.792969 C 120.5625 299.128906 120.683594 299.484375 120.761719 299.851562 C 120.429688 299.816406 120.109375 299.722656 119.808594 299.570312 C 118.433594 298.476562 117.03125 297.402344 115.746094 296.207031 C 83.320312 266.027344 62.050781 229.316406 51.578125 186.3125 C 50.601562 182.300781 49.925781 178.210938 49.1875 174.144531 C 49.070312 173.511719 49.363281 172.808594 49.464844 172.136719 Z M 50.089844 172.113281 " fill-opacity="1" fill-rule="nonzero"/><path fill="#ffffff" d="M 303.207031 259.613281 C 300.917969 259.722656 298.652344 259.523438 296.417969 259.023438 C 294.179688 258.523438 292.050781 257.734375 290.027344 256.65625 C 288.367188 255.753906 287.683594 254.613281 288.382812 252.804688 C 289.140625 250.839844 289.828125 248.84375 290.703125 246.933594 C 297.304688 232.546875 304.015625 218.210938 310.515625 203.777344 C 312.207031 200.027344 313.328125 196.011719 314.589844 192.078125 C 315.042969 190.664062 315.675781 190.019531 317.226562 190.246094 C 324.40625 191.316406 331.058594 193.628906 336.585938 198.511719 C 341.027344 202.433594 343.105469 207.644531 343.996094 213.324219 C 346.390625 228.613281 341.335938 241.253906 329.859375 251.347656 C 323.328125 257.085938 314.617188 259.644531 303.207031 259.613281 Z M 340.03125 219.941406 C 340.019531 207.21875 335.632812 200.785156 323.855469 196.21875 C 323.28125 195.996094 322.703125 195.785156 322.125 195.582031 C 317.609375 194.003906 317.621094 194.007812 316.324219 198.648438 C 311.1875 217.003906 302.792969 233.914062 293.355469 250.359375 C 291.804688 253.058594 291.773438 253.046875 294.839844 254.074219 C 295.257812 254.214844 295.683594 254.324219 296.109375 254.429688 C 302.890625 256.066406 309.597656 255.28125 316.175781 253.457031 C 330.035156 249.617188 340.046875 235.425781 340.03125 219.941406 Z M 340.03125 219.941406 " fill-opacity="1" fill-rule="nonzero"/><path fill="#ffffff" d="M 136.253906 107.179688 C 152.410156 108.390625 168.574219 109.464844 184.710938 110.851562 C 197.253906 111.925781 209.773438 113.246094 222.277344 114.714844 C 245.472656 117.4375 268.375 121.703125 290.609375 128.996094 C 296.269531 130.851562 301.660156 133.550781 307.105469 136.015625 C 309.09375 136.972656 310.976562 138.105469 312.753906 139.414062 C 321.835938 145.789062 325.929688 154.222656 323.292969 165.382812 C 322.808594 167.4375 322.46875 169.53125 321.9375 171.574219 C 321.609375 172.824219 321.941406 173.382812 323.132812 173.96875 C 329.609375 177.148438 336.09375 180.320312 342.4375 183.75 C 358.085938 192.210938 367.808594 211.425781 365.589844 229.101562 C 364.519531 237.652344 362.335938 245.847656 358.316406 253.523438 C 353.523438 262.671875 346.546875 269.539062 337.132812 273.769531 C 330.214844 276.929688 323.011719 279.191406 315.53125 280.554688 C 308.046875 281.917969 300.511719 282.339844 292.925781 281.824219 C 287.03125 281.429688 281.613281 279.292969 276.378906 276.722656 C 274.976562 276.035156 274.328125 276.105469 273.160156 277.324219 C 268.523438 282.144531 263.65625 286.742188 258.882812 291.425781 C 258.394531 291.90625 257.933594 292.417969 257.460938 292.914062 C 258.054688 293.179688 258.667969 293.394531 259.292969 293.558594 C 272.207031 295.945312 284.960938 298.902344 297.101562 304.054688 C 303.675781 306.847656 310.132812 309.886719 315.777344 314.359375 C 318.976562 316.894531 321.824219 319.738281 323.566406 323.546875 C 323.992188 324.476562 324.902344 325.175781 325.421875 326.078125 C 327.140625 329.070312 327.945312 332.21875 327.179688 335.710938 C 325.726562 342.375 322.726562 348.058594 317.421875 352.511719 C 309.601562 359.082031 300.40625 362.757812 290.699219 365.222656 C 265.914062 371.519531 240.773438 374.980469 215.136719 373.714844 C 193.410156 372.640625 171.679688 371.53125 149.972656 370.160156 C 131.691406 369.007812 113.488281 366.953125 95.542969 363.191406 C 71.679688 358.1875 48.714844 350.417969 26.980469 339.304688 C 22.578125 337.050781 18.566406 333.84375 14.78125 330.605469 C 7.054688 324.003906 8.417969 310.941406 14.507812 304.15625 C 26.078125 291.269531 40.792969 284.675781 57.097656 280.894531 C 63.671875 279.371094 70.433594 278.664062 77.109375 277.574219 C 77.769531 277.46875 78.414062 277.289062 79.066406 277.144531 C 78.824219 276.511719 78.527344 275.90625 78.179688 275.328125 C 70.621094 264.882812 63.984375 253.878906 58.269531 242.324219 C 48.683594 222.832031 41.515625 202.546875 38.800781 180.910156 C 37.003906 166.566406 36.820312 152.230469 41.648438 138.296875 C 42.746094 135.140625 43.964844 132.015625 45.367188 128.984375 C 47.851562 123.613281 51.960938 119.65625 57.535156 117.894531 C 64.816406 115.546875 72.203125 113.617188 79.699219 112.097656 C 98.34375 108.421875 117.238281 107.390625 136.214844 107.765625 Z M 135.507812 111.390625 L 135.46875 111.972656 C 118.964844 111.640625 102.535156 112.527344 86.238281 115.203125 C 77.296875 116.671875 68.371094 118.292969 59.84375 121.515625 C 57.917969 122.203125 56.148438 123.175781 54.535156 124.425781 C 52.917969 125.675781 51.539062 127.144531 50.390625 128.835938 C 49.632812 129.9375 49.097656 131.132812 48.785156 132.433594 C 48.46875 133.730469 48.402344 135.039062 48.574219 136.363281 C 49.066406 140.808594 52.398438 143.355469 55.128906 146.292969 C 55.304688 146.480469 56.277344 146.222656 56.625 145.902344 C 60.621094 142.226562 65.589844 140.394531 70.515625 138.488281 C 83.265625 133.550781 96.664062 132.007812 110.144531 131.761719 C 122.367188 131.535156 134.636719 131.9375 146.839844 132.753906 C 159.300781 133.585938 171.742188 135.003906 184.128906 136.640625 C 198.777344 138.574219 213.40625 140.761719 227.964844 143.308594 C 244.417969 146.191406 260.847656 149.296875 277.152344 152.917969 C 284.390625 154.523438 291.371094 157.445312 298.324219 160.144531 C 300.851562 161.222656 303.039062 162.777344 304.886719 164.8125 C 305.855469 165.832031 306.375 166.390625 307.71875 166.027344 C 308.140625 165.910156 308.660156 166.15625 309.132812 166.238281 C 308.875 166.671875 308.726562 167.269531 308.347656 167.503906 C 306.410156 168.707031 304.472656 169.933594 302.429688 170.941406 C 292.179688 175.980469 281.140625 178.238281 269.9375 179.617188 C 251.632812 181.871094 233.230469 182.457031 214.804688 181.871094 C 200.628906 181.425781 186.460938 180.828125 172.296875 180.085938 C 163.332031 179.601562 154.316406 179.171875 145.457031 177.828125 C 132.425781 175.855469 119.5 173.171875 106.5625 170.632812 C 92.878906 167.921875 79.660156 163.738281 66.910156 158.085938 C 58.414062 154.351562 50.941406 149.175781 45.511719 141.433594 C 45.300781 141.1875 45.066406 140.96875 44.808594 140.773438 C 44.574219 141.101562 44.390625 141.453125 44.261719 141.835938 C 43.5625 145.820312 42.640625 149.792969 42.273438 153.808594 C 40.792969 169.898438 42.992188 185.660156 47.296875 201.121094 C 54.5 227.015625 66.390625 250.632812 81.890625 272.582031 C 94.761719 290.808594 111.140625 304.210938 131.894531 312.554688 C 147.429688 318.800781 163.042969 323.351562 180.101562 321.621094 C 197.761719 319.828125 214.472656 315.167969 230.113281 306.832031 C 245.304688 298.730469 259.015625 288.582031 270.734375 275.925781 C 273.53125 272.90625 276.347656 272.875 279.707031 274.132812 C 281.847656 274.933594 283.949219 275.867188 286.132812 276.515625 C 292.578125 278.425781 299.15625 278.339844 305.773438 277.628906 C 316.691406 276.449219 327.316406 274.253906 337.1875 269.167969 C 340.667969 267.402344 343.816406 265.167969 346.632812 262.464844 C 349.445312 259.761719 351.804688 256.703125 353.710938 253.296875 C 355.972656 249.386719 357.753906 245.269531 359.050781 240.945312 C 360.347656 236.617188 361.128906 232.199219 361.390625 227.691406 C 362.328125 210.085938 355.339844 196.335938 340.035156 187.246094 C 333.835938 183.558594 327.425781 180.222656 321.019531 176.90625 C 318.957031 175.839844 318.570312 174.546875 318.992188 172.441406 C 319.628906 169.25 320.039062 166.011719 320.476562 162.785156 C 320.570312 161.6875 320.613281 160.589844 320.59375 159.492188 C 319.886719 160.222656 319.132812 160.898438 318.332031 161.523438 C 317.328125 162.144531 316.292969 162.710938 315.230469 163.21875 C 315.511719 162.109375 315.734375 160.980469 316.089844 159.890625 C 316.324219 159.414062 316.617188 158.976562 316.972656 158.582031 C 317.285156 158.160156 317.554688 157.714844 317.789062 157.242188 C 318.023438 156.769531 318.210938 156.28125 318.355469 155.777344 C 318.5 155.269531 318.601562 154.757812 318.652344 154.234375 C 318.707031 153.710938 318.710938 153.183594 318.671875 152.660156 C 318.628906 152.136719 318.542969 151.621094 318.410156 151.113281 C 318.277344 150.601562 318.097656 150.109375 317.875 149.632812 C 317.65625 149.15625 317.394531 148.703125 317.089844 148.273438 C 316.785156 147.84375 316.449219 147.445312 316.074219 147.074219 C 315.199219 146.199219 314.273438 145.390625 313.289062 144.644531 C 307.472656 140.03125 300.699219 137.21875 293.835938 134.742188 C 271.449219 126.65625 248.152344 122.519531 224.660156 119.464844 C 210.960938 117.679688 197.199219 116.289062 183.4375 115.0625 C 167.480469 113.640625 151.488281 112.597656 135.507812 111.390625 Z M 193.574219 357.195312 C 193.582031 357.078125 193.589844 356.960938 193.601562 356.84375 C 195.449219 356.84375 197.304688 356.917969 199.152344 356.828125 C 212.871094 356.1875 226.621094 355.855469 240.304688 354.757812 C 255.121094 353.566406 269.910156 351.894531 284.648438 349.957031 C 293.496094 348.859375 301.8125 346.140625 309.605469 341.804688 C 312.617188 340.140625 315.382812 338.140625 317.902344 335.800781 C 321.652344 332.230469 322.058594 327.664062 319.25 323.292969 C 317.875 321.234375 316.257812 319.394531 314.398438 317.761719 C 309.773438 313.574219 304.195312 310.882812 298.59375 308.296875 C 286.046875 302.496094 272.765625 299.144531 259.230469 296.636719 C 253.613281 295.597656 253.628906 295.527344 249.050781 298.984375 C 248.984375 299.042969 248.914062 299.097656 248.84375 299.148438 C 247.425781 299.96875 247.886719 300.328125 249.109375 300.882812 C 251.863281 302.042969 254.523438 303.386719 257.09375 304.910156 C 258.664062 305.917969 260.03125 307.15625 261.1875 308.625 C 262.34375 310.089844 263.234375 311.703125 263.851562 313.46875 C 264.109375 314.167969 263.726562 315.101562 263.640625 315.929688 C 263.058594 315.527344 262.308594 315.242188 261.925781 314.699219 C 258.066406 309.273438 252.761719 305.816406 246.800781 303.117188 C 245.167969 302.378906 244.027344 302.355469 242.472656 303.332031 C 234.949219 308.0625 227.363281 312.667969 219.046875 315.992188 C 196.285156 325.085938 173 328.308594 148.703125 323.550781 C 131.160156 320.113281 115.792969 312.425781 102.078125 301.207031 C 99.859375 299.390625 97.933594 298.210938 95.078125 299.574219 C 94 300.085938 92.632812 299.945312 91.484375 300.355469 C 88.441406 301.441406 85.222656 302.292969 82.488281 303.929688 C 78.804688 306.128906 78.652344 309.898438 81.875 312.707031 C 83.515625 314.199219 85.359375 315.367188 87.410156 316.207031 C 92.578125 318.164062 97.78125 320.167969 103.140625 321.464844 C 125.777344 326.953125 148.824219 329.929688 172.023438 331.449219 C 190.296875 332.648438 208.621094 333.015625 226.921875 333.769531 C 228.683594 333.839844 230.4375 334.019531 232.1875 334.203125 C 232.660156 334.308594 233.117188 334.464844 233.554688 334.671875 C 233.097656 334.988281 232.671875 335.507812 232.179688 335.585938 C 230.269531 335.898438 228.347656 336.152344 226.417969 336.28125 C 210.46875 337.355469 194.558594 336.414062 178.640625 335.355469 C 157.542969 333.980469 136.585938 331.449219 115.769531 327.761719 C 106.070312 326.035156 96.390625 324.011719 87.375 319.871094 C 84.320312 318.484375 81.554688 316.660156 79.085938 314.390625 C 75.324219 310.871094 75.652344 305.925781 79.675781 302.660156 C 81.546875 301.171875 83.628906 300.078125 85.914062 299.378906 C 88.914062 298.449219 92.089844 298.085938 95.195312 297.5 C 96.484375 297.257812 96.851562 297.003906 95.738281 295.792969 C 91.082031 290.742188 86.523438 285.601562 81.984375 280.445312 C 81.21875 279.570312 80.582031 279.09375 79.316406 279.363281 C 71.246094 281.101562 63.082031 282.472656 55.089844 284.511719 C 44.710938 287.160156 34.851562 291.207031 26.289062 297.839844 C 18.046875 304.222656 17.878906 312.242188 25.691406 319.226562 C 26.574219 320.09375 27.546875 320.855469 28.597656 321.507812 C 33.125 324.027344 37.511719 326.972656 42.3125 328.808594 C 51.824219 332.445312 61.488281 335.769531 71.257812 338.65625 C 96.871094 346.300781 122.980469 351.464844 149.574219 354.148438 C 164.199219 355.589844 178.902344 356.203125 193.574219 357.195312 Z M 323.460938 335.375 C 316.605469 344.257812 306.761719 347.96875 296.625 351.082031 C 287.246094 353.964844 277.566406 355.386719 267.835938 356.285156 C 253.8125 357.578125 239.761719 358.621094 225.710938 359.675781 C 201.394531 361.5 177.105469 360.640625 152.875 358.316406 C 131.382812 356.257812 110.160156 352.617188 89.207031 347.394531 C 72.988281 343.347656 56.835938 339.089844 41.347656 332.664062 C 35.21875 330.125 29.324219 327.148438 24.226562 322.855469 C 19.714844 319.054688 16.332031 314.546875 16.355469 308.246094 C 16.320312 307.917969 16.253906 307.597656 16.152344 307.285156 C 15.8125 307.507812 15.507812 307.765625 15.230469 308.0625 C 11.839844 312.785156 12.09375 321.21875 15.789062 325.980469 C 18.878906 329.953125 22.699219 333.019531 27.246094 335.175781 C 34.847656 338.828125 42.507812 342.394531 50.328125 345.539062 C 66.019531 351.851562 82.113281 356.9375 98.757812 360.09375 C 123.988281 364.882812 149.523438 366.789062 175.121094 368.09375 C 183.476562 368.519531 191.84375 368.820312 200.199219 369.28125 C 219.472656 370.347656 238.773438 371.3125 257.914062 367.964844 C 269.941406 365.859375 281.898438 363.378906 293.792969 360.523438 C 297.933594 359.566406 301.894531 358.113281 305.671875 356.160156 C 309.453125 354.207031 312.929688 351.820312 316.109375 348.996094 C 320.203125 345.324219 322.441406 340.703125 323.460938 335.375 Z M 188.210938 146.882812 L 188.28125 145.9375 C 187.871094 145.871094 187.457031 145.804688 187.046875 145.734375 C 180.390625 144.5625 173.710938 143.515625 167.085938 142.1875 C 155.957031 139.957031 144.894531 137.269531 133.410156 137.945312 C 121.457031 138.648438 109.492188 139.207031 97.566406 140.234375 C 92.800781 140.644531 88.070312 141.933594 83.425781 143.210938 C 79.6875 144.238281 77.105469 146.984375 75.449219 150.457031 C 75.089844 151.207031 75.335938 152.25 75.304688 153.15625 C 75.996094 152.75 76.886719 152.5 77.355469 151.914062 C 80.828125 147.554688 85.402344 145.117188 90.808594 144.273438 C 94.195312 143.730469 97.601562 143.398438 101.027344 143.265625 C 109.121094 142.980469 117.222656 142.953125 125.320312 142.679688 C 129.628906 142.53125 133.921875 142.003906 138.226562 141.78125 C 150.011719 141.179688 161.550781 143.144531 173.101562 145.101562 C 178.097656 145.949219 183.171875 146.304688 188.210938 146.882812 Z M 233.996094 151.824219 L 233.949219 152.082031 C 233.421875 152.023438 232.898438 152.003906 232.367188 152.027344 C 232.007812 152.117188 231.664062 152.257812 231.34375 152.449219 C 231.632812 152.582031 231.933594 152.699219 232.238281 152.796875 C 233.933594 153.25 235.636719 153.671875 237.328125 154.128906 C 248.34375 157.125 259.371094 160.097656 270.804688 161.039062 C 276.9375 161.546875 283.078125 161.898438 288.828125 164.421875 C 289.085938 164.476562 289.347656 164.480469 289.609375 164.433594 C 289.449219 164.242188 289.328125 163.949219 289.121094 163.867188 C 286.359375 162.769531 283.671875 161.296875 280.804688 160.699219 C 271.441406 158.742188 262.011719 157.105469 252.613281 155.339844 C 246.40625 154.175781 240.199219 153.003906 233.996094 151.824219 Z M 137.34375 151.695312 C 137.355469 151.503906 137.367188 151.3125 137.378906 151.125 C 133.101562 150.308594 128.808594 149.976562 124.511719 151.183594 C 124.027344 151.320312 123.679688 151.941406 123.265625 152.335938 C 123.78125 152.519531 124.3125 152.894531 124.808594 152.855469 C 128.992188 152.511719 133.167969 152.09375 137.34375 151.695312 Z M 152.183594 152.839844 C 154.074219 152.738281 155.464844 152.691406 156.847656 152.554688 C 157.015625 152.539062 157.136719 152.046875 157.285156 151.777344 C 154.382812 151.566406 151.480469 151.339844 148.574219 151.191406 C 148.410156 151.183594 148.003906 151.90625 148.082031 152.179688 C 148.292969 152.554688 148.609375 152.761719 149.035156 152.808594 C 150.25 152.886719 151.46875 152.839844 152.183594 152.839844 Z M 152.183594 152.839844 " fill-opacity="1" fill-rule="nonzero"/></svg>