<svg xmlns="http://www.w3.org/2000/svg" xmlns:xlink="http://www.w3.org/1999/xlink" width="500" zoomAndPan="magnify" viewBox="0 0 375 374.999991" height="500" preserveAspectRatio="xMidYMid meet" version="1.0"><defs><clipPath id="id1"><path d="M 81 32 L 295.695312 32 L 295.695312 340 L 81 340 Z M 81 32 " clip-rule="nonzero"/></clipPath></defs><g clip-path="url(#id1)"><path fill="#ffffff" d="M 295.261719 229.570312 C 294.992188 198.476562 286.597656 154.25 265.519531 130.078125 C 264.882812 129.347656 263.652344 129.476562 263.085938 130.136719 C 262.46875 129.878906 261.636719 130.113281 261.621094 130.917969 C 261.253906 148.195312 262.503906 163.707031 258.164062 180.828125 C 255.910156 189.726562 251.988281 197.613281 247.496094 205.242188 C 249.421875 190.636719 246.664062 175.074219 244.675781 160.792969 C 241.988281 141.496094 236.171875 123.253906 227.671875 105.753906 C 213.875 77.355469 189.203125 46.675781 160.476562 32.527344 C 159.054688 31.828125 157.691406 33.164062 158.054688 34.453125 C 157.695312 34.84375 157.507812 35.367188 157.722656 36.03125 C 171.277344 78.441406 147.183594 112.839844 123.496094 146.25 C 103.789062 174.042969 85.519531 204.339844 82.121094 238.941406 C 79.097656 269.726562 93.988281 296.085938 115.886719 316.433594 C 131.425781 330.867188 153.003906 342.984375 173.683594 338.519531 C 192.125 341.527344 214.808594 335.777344 230.753906 330.679688 C 244.570312 326.261719 260.148438 318.125 270.214844 306.4375 C 292.160156 288.695312 295.492188 255.742188 295.261719 229.570312 Z M 227.164062 322.574219 C 216.078125 326.613281 204.152344 328.699219 192.496094 330.234375 C 191.105469 330.414062 189.707031 330.542969 188.304688 330.636719 C 188.089844 330.011719 187.515625 329.550781 186.628906 329.757812 C 183.777344 330.410156 180.976562 330.796875 178.199219 331.066406 C 176.273438 331.132812 174.359375 331.226562 172.453125 331.378906 C 142.921875 331.511719 117.996094 310.710938 101.898438 285.449219 C 82.433594 254.902344 92.941406 217.28125 107.019531 187.027344 C 126.625 144.898438 183.59375 92.273438 164.222656 41.25 C 186.210938 64.117188 207.320312 83.367188 221.210938 113.628906 C 228.421875 129.328125 233.089844 146.105469 236.601562 162.980469 C 240.3125 180.796875 239.054688 198.546875 240.554688 216.464844 C 239.582031 217.992188 238.605469 219.527344 237.632812 221.070312 C 236.867188 222.292969 238.226562 224.261719 239.535156 223.121094 C 259.164062 206.023438 272.222656 171.515625 267.496094 143.835938 C 270.273438 150.242188 273.402344 156.554688 275.910156 163.015625 C 281.65625 177.828125 285.355469 193.269531 288.15625 208.875 C 291.804688 229.175781 291.09375 248.089844 285.582031 267.707031 C 282.65625 278.128906 276.832031 286.574219 271.390625 295.355469 C 257.042969 305.699219 244.621094 316.214844 227.164062 322.574219 Z M 227.164062 322.574219 " fill-opacity="1" fill-rule="nonzero"/></g><path fill="#ffffff" d="M 262.59375 220.007812 C 262.703125 219.1875 262.777344 218.355469 262.8125 217.503906 C 262.859375 216.1875 261.109375 215.871094 260.46875 216.886719 C 253.574219 227.832031 248.882812 236.316406 235.539062 240.652344 C 224.628906 244.199219 214.554688 242.292969 203.933594 240.828125 C 219.644531 209.679688 218.429688 153.570312 189.488281 130.96875 C 188.320312 130.058594 186.628906 131.40625 187.234375 132.75 C 187.402344 133.121094 187.574219 133.480469 187.742188 133.851562 C 176.609375 149.890625 166.136719 164.796875 152.691406 179.3125 C 138.914062 194.195312 124.863281 208.710938 115.671875 227.019531 C 99.851562 258.542969 117.789062 303.742188 154.316406 307.5 C 156.605469 308.988281 158.980469 310.222656 161.402344 311.082031 C 163.226562 311.722656 164.074219 309.234375 162.730469 308.179688 C 162.382812 307.910156 162.046875 307.628906 161.707031 307.359375 C 162.546875 306.636719 162.585938 305.15625 161.25 304.703125 C 159.664062 304.167969 158.113281 303.589844 156.574219 302.988281 C 145.835938 293.183594 138.652344 281.617188 141.664062 265.734375 C 144.40625 251.25 157.808594 240.261719 169.355469 231.890625 C 164.351562 245.023438 168.777344 263.175781 176.253906 273.378906 C 184.699219 284.890625 201.566406 285.941406 211.355469 276.5625 C 208.765625 282.421875 207.277344 288.855469 203.597656 294.375 C 196.761719 304.617188 184.738281 307.820312 173.40625 310.167969 C 172.863281 310.28125 173.03125 311.023438 173.460938 311.152344 C 173.703125 311.226562 173.9375 311.25 174.179688 311.3125 C 173.449219 312.410156 173.566406 313.980469 175.242188 314.332031 C 227.269531 325.175781 280.085938 271.75 262.59375 220.007812 Z M 196.890625 307.628906 C 198.769531 306.527344 200.597656 305.304688 202.332031 303.914062 C 210.617188 297.273438 220.011719 282.644531 215.699219 271.835938 C 215.632812 271.671875 215.507812 271.53125 215.363281 271.421875 C 215.441406 271.285156 215.535156 271.171875 215.605469 271.035156 C 216.289062 269.777344 214.695312 268.769531 213.636719 269.125 C 206.972656 271.339844 201.386719 275.476562 193.988281 275.160156 C 186.722656 274.84375 181.167969 268.277344 178.019531 262.441406 C 171.308594 250.027344 174.734375 238.039062 176.496094 225.054688 C 176.660156 223.84375 175.246094 222.863281 174.300781 223.863281 C 172.992188 225.246094 171.917969 226.792969 170.996094 228.4375 C 153.863281 236.277344 139.8125 249.980469 135.667969 268.8125 C 133.652344 277.976562 136.769531 287.875 142.457031 295.945312 C 128.800781 287.390625 118.882812 274.902344 116.085938 257.128906 C 113.121094 238.273438 125.195312 220.367188 136.164062 206.320312 C 146.417969 193.191406 158.027344 181.230469 168.929688 168.664062 C 176.367188 160.097656 186.027344 149.304688 189.566406 137.8125 C 196.410156 152.429688 203.339844 165.441406 206.058594 182.171875 C 209.347656 202.414062 205.511719 221.886719 197.550781 240.429688 C 196.066406 241.207031 195.636719 243.667969 197.300781 244.644531 C 214.316406 254.59375 247.582031 248.761719 258.917969 230.261719 C 258.25 246.628906 258.457031 261.417969 249.476562 277.167969 C 237.03125 299.007812 217.875 304.617188 196.890625 307.628906 Z M 196.890625 307.628906 " fill-opacity="1" fill-rule="nonzero"/></svg>