<svg xmlns="http://www.w3.org/2000/svg" xmlns:xlink="http://www.w3.org/1999/xlink" width="500" zoomAndPan="magnify" viewBox="0 0 375 374.999991" height="500" preserveAspectRatio="xMidYMid meet" version="1.0"><defs><clipPath id="id1"><path d="M 101.785156 86 L 269.957031 86 L 269.957031 331.453125 L 101.785156 331.453125 Z M 101.785156 86 " clip-rule="nonzero"/></clipPath><clipPath id="id2"><path d="M 139 37.5 L 145 37.5 L 145 50 L 139 50 Z M 139 37.5 " clip-rule="nonzero"/></clipPath><clipPath id="id3"><path d="M 295.269531 142.144531 L 306.890625 142.144531 L 306.890625 146.644531 L 295.269531 146.644531 Z M 295.269531 142.144531 " clip-rule="nonzero"/></clipPath><clipPath id="id4"><path d="M 51.164062 197 L 65 197 L 65 202 L 51.164062 202 Z M 51.164062 197 " clip-rule="nonzero"/></clipPath><clipPath id="id5"><path d="M 29.25 231.382812 L 179.152344 231.382812 L 179.152344 375 L 29.25 375 Z M 29.25 231.382812 " clip-rule="nonzero"/></clipPath></defs><g clip-path="url(#id1)"><path fill="#ffffff" d="M 179.359375 175.808594 C 180.621094 174.28125 180.773438 172.328125 181.046875 170.398438 C 181.546875 166.941406 182.089844 163.492188 181.214844 160.019531 C 180.8125 158.4375 179.796875 157.484375 178.65625 157.597656 C 177.152344 157.753906 176.5 158.859375 176.023438 160.078125 C 175.824219 160.578125 175.757812 161.160156 175.769531 161.703125 C 175.875 166.484375 176.65625 171.132812 178.550781 175.558594 C 178.597656 175.664062 178.882812 175.667969 179.359375 175.808594 Z M 198.191406 178.09375 C 198.855469 177.273438 199.199219 177.027344 199.289062 176.707031 C 200.835938 171.117188 200.976562 165.453125 200.058594 159.753906 C 199.917969 158.871094 199.507812 158.011719 199.121094 157.191406 C 198.785156 156.480469 197.3125 156.328125 196.679688 156.835938 C 195.273438 157.953125 194.6875 159.535156 194.59375 161.195312 C 194.265625 166.957031 195.0625 172.503906 198.191406 178.09375 Z M 218.050781 178.78125 C 217.53125 177.226562 216.972656 175.105469 216.113281 173.117188 C 215.480469 171.660156 213.371094 171.664062 212.460938 173.035156 C 209.570312 177.414062 207.992188 182.269531 207.4375 187.464844 C 207.304688 188.679688 208.164062 189.582031 209.351562 189.691406 C 213.289062 190.0625 216.207031 188.136719 217.210938 184.324219 C 217.628906 182.734375 217.71875 181.0625 218.050781 178.78125 Z M 168.917969 188.671875 C 168.957031 184.316406 167.167969 180.972656 166.316406 177.453125 C 165.84375 175.507812 164.960938 173.609375 163.941406 171.882812 C 163.320312 170.839844 162.1875 169.972656 161.09375 169.371094 C 159.203125 168.332031 157.308594 169.382812 156.933594 171.460938 C 156.871094 171.824219 156.804688 172.195312 156.792969 172.558594 C 156.585938 179.511719 161.257812 186.007812 168.917969 188.671875 Z M 174.765625 320.847656 C 176.421875 325.714844 176.808594 326.191406 180.660156 327.351562 C 182.242188 327.828125 183.882812 328.125 185.511719 328.425781 C 191.222656 329.480469 196.890625 328.550781 202.34375 328.15625 C 204.570312 326.273438 205.75 324.089844 206.953125 321.117188 C 202.980469 320.539062 199.582031 321.652344 196.179688 321.585938 C 192.488281 321.511719 188.792969 321.542969 185.109375 321.359375 C 181.679688 321.195312 178.292969 319.957031 174.765625 320.847656 Z M 167.117188 311.722656 C 167.035156 313.75 167.40625 314.953125 168.90625 315.402344 C 172.09375 316.359375 175.253906 317.707031 178.515625 318.089844 C 186.8125 319.054688 195.160156 319.328125 203.46875 317.933594 C 205.300781 317.628906 207.175781 317.546875 208.984375 317.15625 C 210.925781 316.738281 212.402344 315.660156 212.511719 313.4375 C 212.574219 312.199219 212.523438 310.957031 212.523438 309.355469 C 208.601562 310.332031 205.050781 311.234375 201.492188 312.105469 C 190.875 314.695312 180.265625 315.484375 169.652344 312.078125 C 168.988281 311.863281 168.25 311.871094 167.117188 311.722656 Z M 214.414062 291.582031 C 213.300781 291.582031 212.585938 291.484375 211.90625 291.601562 C 208.074219 292.234375 204.238281 292.851562 200.429688 293.609375 C 193.472656 294.992188 186.53125 295.363281 179.460938 294.335938 C 175.058594 293.699219 170.664062 293.164062 166.375 291.949219 C 165.503906 291.707031 164.5625 291.671875 163.648438 291.648438 C 163.339844 291.640625 163.019531 291.960938 162.347656 292.324219 C 162.675781 293.753906 163.023438 295.292969 163.429688 297.085938 C 167.269531 298.269531 170.890625 299.816406 174.664062 300.460938 C 180.863281 301.515625 187.164062 302.117188 193.46875 301.503906 C 200.25 300.84375 207.226562 300.878906 213.214844 296.835938 C 213.503906 296.640625 213.699219 296.304688 214.15625 295.792969 C 214.226562 294.644531 214.3125 293.238281 214.414062 291.582031 Z M 164.230469 300.183594 C 164.867188 303.367188 165.296875 305.519531 165.792969 308 C 168.03125 308.851562 170.210938 309.871094 172.496094 310.515625 C 179.410156 312.457031 186.398438 312.363281 193.464844 311.242188 C 200.09375 310.195312 206.4375 308.210938 212.75 306.234375 C 213.433594 303.402344 213.402344 303.402344 212.734375 301.054688 C 196.800781 305.382812 180.90625 304.851562 164.230469 300.183594 Z M 160.988281 283.003906 C 161.589844 288.164062 161.589844 288.167969 165.414062 289.242188 C 178.355469 292.878906 191.375 293.144531 204.46875 290.117188 C 208.058594 289.285156 211.644531 288.453125 215.019531 287.671875 C 215.761719 285.878906 216.179688 284.503906 215.09375 283.519531 C 209.25 283.679688 203.675781 283.515625 198.175781 284.066406 C 191.660156 284.722656 185.222656 284.21875 178.757812 283.769531 C 176.382812 283.605469 174.015625 283.292969 171.648438 282.933594 C 168.285156 282.417969 164.71875 281.363281 160.988281 283.003906 Z M 198.132812 185.855469 C 196.648438 187.035156 195.261719 188.257812 193.753906 189.304688 C 191.660156 190.757812 189.519531 190.996094 186.921875 190.191406 C 183.820312 189.234375 181.515625 187.113281 178.703125 185.25 C 176.691406 187.488281 174.871094 189.515625 172.9375 191.664062 C 173.070312 193.121094 173.074219 194.609375 173.355469 196.046875 C 174.71875 203.007812 174.710938 210.046875 174.683594 217.09375 C 174.664062 221.730469 174.515625 226.375 174.582031 231.011719 C 174.671875 237.5 175.117188 243.992188 175.03125 250.476562 C 174.917969 259.199219 174.953125 267.910156 175.488281 276.613281 C 175.566406 277.859375 175.882812 279.09375 176.078125 280.289062 C 177.003906 280.667969 177.675781 281.160156 178.367188 281.1875 C 184.113281 281.421875 189.863281 281.621094 195.613281 281.699219 C 196.625 281.710938 197.648438 281.121094 198.8125 280.761719 C 199.085938 271.460938 199.386719 262.375 199.601562 253.289062 C 199.703125 248.835938 199.566406 244.375 199.679688 239.921875 C 199.773438 236.023438 200.078125 232.136719 200.257812 228.242188 C 200.78125 216.746094 200.539062 205.195312 203.011719 193.859375 C 203.167969 193.140625 203.164062 192.394531 203.28125 191.203125 C 201.359375 189.863281 200.902344 186.925781 198.132812 185.855469 Z M 172.667969 280.328125 C 172.746094 278.378906 172.867188 277.121094 172.832031 275.867188 C 172.6875 270.667969 172.417969 265.476562 172.339844 260.277344 C 172.246094 253.777344 172.367188 247.273438 172.277344 240.773438 C 172.105469 228.140625 171.894531 215.507812 171.609375 202.878906 C 171.53125 199.371094 171.398438 195.828125 170.03125 192.839844 C 169.621094 192.453125 169.5 192.234375 169.351562 192.214844 C 160.503906 190.941406 154.917969 181.324219 154.386719 172.988281 C 154.292969 171.558594 154.65625 170.050781 155.066406 168.652344 C 155.457031 167.308594 156.546875 166.613281 158.003906 166.488281 C 160.976562 166.230469 163.589844 166.828125 165.304688 169.5 C 166.097656 170.738281 166.90625 172.015625 167.394531 173.386719 C 168.765625 177.230469 169.945312 181.148438 171.265625 185.011719 C 171.546875 185.824219 172.113281 186.542969 172.570312 187.34375 C 177.273438 183.390625 177.390625 183.027344 175.753906 177.851562 C 175.476562 176.964844 175.171875 176.082031 174.953125 175.179688 C 173.820312 170.476562 172.738281 165.746094 173.109375 160.863281 C 173.367188 157.511719 175.464844 155.136719 178.03125 154.992188 C 180.953125 154.824219 183.09375 157.0625 183.394531 160.871094 C 183.765625 165.523438 183.5625 170.15625 182.320312 174.699219 C 181.878906 176.3125 181.488281 177.9375 181.128906 179.570312 C 180.839844 180.898438 181.007812 182.183594 181.933594 183.242188 C 184.132812 185.753906 186.976562 187.1875 190.246094 187.136719 C 193.0625 187.089844 195.046875 185.367188 196.144531 182.523438 C 195.457031 180.71875 194.789062 178.796875 194 176.921875 C 191.851562 171.808594 191.382812 166.484375 192.125 161.0625 C 192.375 159.265625 192.964844 157.410156 193.851562 155.835938 C 195.609375 152.71875 199.246094 152.875 200.855469 156.160156 C 201.734375 157.957031 202.238281 160.003906 202.546875 161.996094 C 203.3125 167.007812 203.023438 172.003906 201.820312 176.941406 C 201.386719 178.730469 201.007812 180.53125 200.621094 182.253906 C 201.617188 184.015625 202.609375 185.484375 204.753906 186.296875 C 205.863281 183.890625 206.101562 181.496094 206.828125 179.257812 C 207.742188 176.449219 208.882812 173.699219 210.152344 171.035156 C 211.042969 169.167969 212.855469 168.398438 214.84375 168.839844 C 216.679688 169.246094 218.484375 170.164062 218.878906 172.234375 C 219.753906 176.796875 220.542969 181.363281 219.136719 186.015625 C 217.777344 190.523438 214.464844 193.082031 209.726562 193.03125 C 208.671875 193.019531 207.613281 193.121094 206.234375 193.1875 C 205.59375 197.042969 204.183594 200.484375 203.925781 204.222656 C 203.679688 207.734375 203.222656 211.234375 203.039062 214.746094 C 202.449219 226.058594 201.9375 237.375 201.40625 248.691406 C 201.378906 249.242188 201.496094 249.800781 201.503906 250.355469 C 201.582031 255.554688 201.695312 260.753906 201.710938 265.949219 C 201.71875 269.105469 201.558594 272.265625 201.503906 275.421875 C 201.476562 277.289062 201.640625 279.128906 202.921875 280.90625 C 206.691406 282.085938 210.511719 280.886719 214.304688 280.300781 C 219.132812 279.550781 220.632812 278.074219 221.527344 273.1875 C 222.164062 269.722656 222.546875 266.199219 222.796875 262.6875 C 223.53125 252.414062 226.261719 243.023438 233.449219 235.195312 C 237.460938 230.828125 241.066406 226.074219 244.683594 221.367188 C 249.191406 215.507812 254.371094 210.078125 256.746094 202.800781 C 257.253906 201.242188 258.332031 199.871094 259.167969 198.425781 C 259.816406 197.304688 260.675781 196.265625 261.132812 195.074219 C 264.164062 187.230469 265.875 179.0625 266.761719 170.71875 C 266.898438 169.4375 266.835938 168.113281 266.695312 166.828125 C 265.417969 155.289062 262.410156 144.234375 257.542969 133.671875 C 250.859375 119.171875 241.535156 106.964844 227.738281 98.519531 C 218.710938 93 209.136719 89.457031 198.378906 89.128906 C 193.183594 88.972656 187.996094 89.058594 182.8125 88.996094 C 175.707031 88.90625 168.785156 89.761719 161.992188 92.089844 C 157.929688 93.488281 154.121094 95.316406 150.273438 97.148438 C 141.964844 101.117188 134.542969 106.433594 128.027344 112.796875 C 123.964844 116.765625 120.480469 121.507812 117.527344 126.378906 C 112.617188 134.480469 108.808594 143.175781 106.433594 152.398438 C 104.855469 158.515625 103.691406 164.710938 104.355469 171.101562 C 104.722656 174.605469 104.9375 178.125 105.234375 181.632812 C 105.769531 187.96875 107.140625 194.121094 109.652344 199.96875 C 111.40625 204.054688 113.167969 208.179688 115.382812 212.027344 C 119.550781 219.285156 124.269531 226.113281 130.972656 231.4375 C 138.800781 237.65625 144.632812 245.574219 148.800781 254.628906 C 150.183594 257.640625 150.820312 260.988281 151.882812 264.152344 C 153.0625 267.667969 154.308594 271.160156 155.585938 274.640625 C 156.585938 277.359375 158.75 278.742188 161.476562 279.125 C 164.949219 279.617188 168.457031 279.890625 172.667969 280.328125 Z M 189.484375 86.496094 C 201.527344 85.6875 211.835938 87.6875 221.710938 91.898438 C 224.429688 93.054688 227.144531 94.425781 229.488281 96.191406 C 234.628906 100.0625 240.226562 103.1875 244.515625 108.378906 C 252.1875 117.664062 257.996094 127.835938 262.574219 138.898438 C 265.730469 146.535156 267.347656 154.496094 268.917969 162.507812 C 269.902344 167.507812 269.5625 172.496094 268.5625 177.457031 C 267.863281 180.914062 267.191406 184.378906 266.449219 187.828125 C 265.027344 194.417969 261.933594 200.355469 259.050781 206.359375 C 258.179688 208.179688 256.9375 209.859375 255.671875 211.445312 C 249.878906 218.707031 243.933594 225.84375 238.207031 233.15625 C 232.789062 240.070312 228.34375 247.554688 226.089844 256.15625 C 225.617188 257.953125 225.226562 259.777344 224.960938 261.613281 C 224.265625 266.382812 223.761719 271.1875 222.960938 275.941406 C 222.695312 277.527344 222.121094 279.363281 221.042969 280.441406 C 219.15625 282.339844 218.710938 284.585938 218.3125 286.96875 C 216.910156 295.371094 215.117188 303.734375 215.53125 312.332031 C 215.644531 314.734375 215.035156 316.730469 212.910156 318.082031 C 210.96875 319.320312 209.820312 321.207031 208.574219 323.082031 C 201.96875 333.03125 203.894531 331.152344 193.550781 331.429688 C 188.511719 331.5625 183.566406 331.207031 178.75 329.449219 C 176.703125 328.703125 175.164062 327.59375 173.976562 325.847656 C 173.039062 324.46875 172.140625 323.050781 171.097656 321.75 C 170.292969 320.75 169.4375 319.445312 168.34375 319.09375 C 165.527344 318.1875 164.9375 316.160156 164.453125 313.632812 C 162.695312 304.523438 160.71875 295.453125 158.898438 286.355469 C 158.488281 284.304688 157.488281 282.734375 156.324219 281.003906 C 154.171875 277.816406 152.507812 274.246094 151.054688 270.664062 C 149.949219 267.933594 149.4375 264.953125 148.753906 262.0625 C 147.183594 255.445312 144.257812 249.570312 139.890625 244.300781 C 136.320312 239.988281 132.484375 236.007812 128.261719 232.332031 C 121.007812 226.015625 115.804688 218.125 111.449219 209.636719 C 110.265625 207.324219 109.046875 205.023438 108.019531 202.640625 C 106.03125 198.027344 104.53125 193.273438 103.757812 188.261719 C 102.371094 179.238281 101.46875 170.191406 102.039062 161.0625 C 102.378906 155.648438 103.9375 150.433594 105.816406 145.402344 C 108.023438 139.507812 109.871094 133.445312 113.257812 128.023438 C 122.972656 112.472656 136.035156 100.855469 152.765625 93.214844 C 163.300781 88.410156 174.210938 86.089844 185.742188 86.488281 C 187.410156 86.546875 189.085938 86.496094 189.484375 86.496094 " fill-opacity="1" fill-rule="nonzero"/></g><path fill="#ffffff" d="M 296.679688 199.011719 C 290.4375 198.691406 286.195312 196.410156 282.515625 192.898438 C 282.324219 192.714844 282.277344 192.019531 282.433594 191.894531 C 282.800781 191.59375 283.5 191.199219 283.769531 191.355469 C 287.738281 193.644531 291.660156 196.015625 296.679688 199.011719 " fill-opacity="1" fill-rule="nonzero"/><g clip-path="url(#id2)"><path fill="#ffffff" d="M 139.921875 37.515625 C 143.960938 40.746094 143.316406 45.507812 144.144531 49.789062 C 142.027344 45.925781 140.730469 41.800781 139.921875 37.515625 " fill-opacity="1" fill-rule="nonzero"/></g><g clip-path="url(#id3)"><path fill="#ffffff" d="M 295.351562 146.273438 C 297.242188 145.675781 299.148438 145.132812 301.011719 144.464844 C 302.738281 143.851562 304.417969 143.105469 306.023438 142.453125 C 306.863281 143.078125 307.257812 143.847656 306.433594 144.304688 C 303.019531 146.1875 299.332031 147.078125 295.351562 146.273438 " fill-opacity="1" fill-rule="nonzero"/></g><g clip-path="url(#id4)"><path fill="#ffffff" d="M 51.164062 201.917969 C 54.414062 198.554688 58.503906 197.742188 64.078125 198.007812 C 59.292969 200.132812 55.355469 201.332031 51.164062 201.917969 " fill-opacity="1" fill-rule="nonzero"/></g><path fill="#ffffff" d="M 87.949219 236.367188 C 89.863281 233.246094 92.046875 232.078125 96.191406 231.558594 C 94.515625 234.367188 93.835938 234.78125 87.949219 236.367188 " fill-opacity="1" fill-rule="nonzero"/><path fill="#ffffff" d="M 77.328125 74.425781 C 78.539062 74.324219 79.386719 73.992188 79.71875 74.269531 C 82.210938 76.367188 84.597656 78.585938 87.1875 80.921875 C 86.460938 81.101562 85.980469 81.359375 85.847656 81.234375 C 83.347656 78.917969 79.875 77.777344 77.328125 74.425781 " fill-opacity="1" fill-rule="nonzero"/><path fill="#ffffff" d="M 289.476562 97.214844 C 288.882812 102.164062 284.375 102.226562 281.855469 104.992188 C 281.03125 103.402344 282.289062 103.136719 282.820312 102.59375 C 283.59375 101.804688 284.539062 101.1875 285.375 100.449219 C 286.066406 99.832031 286.648438 99.089844 287.371094 98.511719 C 288.011719 98 288.769531 97.640625 289.476562 97.214844 " fill-opacity="1" fill-rule="nonzero"/><path fill="#ffffff" d="M 251.480469 49.503906 C 250.914062 54.070312 248.757812 56.6875 247.902344 59.800781 C 247.851562 55.394531 248.828125 52.398438 251.480469 49.503906 " fill-opacity="1" fill-rule="nonzero"/><path fill="#ffffff" d="M 196.363281 40.84375 C 196.65625 41.816406 197.058594 42.492188 197.023438 43.148438 C 196.816406 47.285156 197.484375 51.464844 196.753906 55.914062 C 194.695312 52.996094 194.570312 46.390625 196.363281 40.84375 " fill-opacity="1" fill-rule="nonzero"/><path fill="#ffffff" d="M 261.136719 236.066406 C 266.367188 239.636719 266.367188 239.636719 266.582031 241.878906 C 263.953125 240.441406 262.125 238.625 261.136719 236.066406 " fill-opacity="1" fill-rule="nonzero"/><path fill="#ffffff" d="M 60.710938 134.054688 C 62.457031 134.5 64.199219 134.953125 65.945312 135.398438 C 63.90625 135.875 61.878906 136.203125 60.820312 133.933594 L 60.710938 134.054688 " fill-opacity="1" fill-rule="nonzero"/><path fill="#ffffff" d="M 60.820312 133.933594 C 58.132812 134.0625 58.136719 134.042969 56.011719 132.867188 C 58.371094 132.886719 58.371094 132.878906 60.707031 134.0625 C 60.710938 134.054688 60.820312 133.933594 60.820312 133.933594 " fill-opacity="1" fill-rule="nonzero"/><path stroke-linecap="round" transform="matrix(0.0148712, 0, 0, -0.0148898, 29.250281, 381.388569)" fill="none" stroke-linejoin="round" d="M 9304.352528 3921.901106 C 8909.293677 2379.057451 7698.375258 1163.881154 6158.066014 762.757544 " stroke="#100f0d" stroke-width="40" stroke-opacity="1" stroke-miterlimit="10"/><path stroke-linecap="round" transform="matrix(0.0148712, 0, 0, -0.0148898, 29.250281, 381.388569)" fill="none" stroke-linejoin="round" d="M 781.6933 6134.246036 C 1180.429561 7671.055784 2389.246604 8880.460519 3925.615765 9280.010066 " stroke="#100f0d" stroke-width="40" stroke-opacity="1" stroke-miterlimit="10"/><path stroke-linecap="round" transform="matrix(0.0148712, 0, 0, -0.0148898, 29.250281, 381.388569)" fill="none" stroke-linejoin="round" d="M 8736.45543 4070.387674 C 8394.719017 2732.434496 7345.081272 1678.599611 6009.656273 1330.731785 " stroke="#100f0d" stroke-width="40" stroke-opacity="1" stroke-miterlimit="10"/><path stroke-linecap="round" transform="matrix(0.0148712, 0, 0, -0.0148898, 29.250281, 381.388569)" fill="none" stroke-linejoin="round" d="M 1349.853071 5985.497124 C 1695.004221 7317.416395 2742.803261 8366.004405 4074.288179 8712.035825 " stroke="#100f0d" stroke-width="40" stroke-opacity="1" stroke-miterlimit="10"/><path stroke-linecap="round" transform="matrix(0.0148712, 0, 0, -0.0148898, 29.250281, 381.388569)" fill="none" stroke-linejoin="round" d="M 8168.558332 4218.874242 C 7880.144357 3085.811541 6991.524614 2193.055725 5860.98386 1898.443682 " stroke="#100f0d" stroke-width="40" stroke-opacity="1" stroke-miterlimit="10"/><path stroke-linecap="round" transform="matrix(0.0148712, 0, 0, -0.0148898, 29.250281, 381.388569)" fill="none" stroke-linejoin="round" d="M 1917.487497 5837.010556 C 2209.841554 6964.03935 3096.097247 7851.285947 4222.960592 8144.323927 " stroke="#100f0d" stroke-width="40" stroke-opacity="1" stroke-miterlimit="10"/><path stroke-linecap="round" transform="matrix(0.0148712, 0, 0, -0.0148898, 29.250281, 381.388569)" fill="none" stroke-linejoin="round" d="M 6541.304621 5020.33443 C 6541.829965 4191.852835 5870.702728 3520.777496 5042.234898 3521.302184 " stroke="#100f0d" stroke-width="40" stroke-opacity="1" stroke-miterlimit="10"/><path stroke-linecap="round" transform="matrix(0.0148712, 0, 0, -0.0148898, 29.250281, 381.388569)" fill="none" stroke-linejoin="round" d="M 3541.326471 5022.170836 C 3540.801127 5843.831493 4200.896135 6510.709332 5020.170441 6521.203082 " stroke="#100f0d" stroke-width="40" stroke-opacity="1" stroke-miterlimit="10"/><path stroke-linecap="round" transform="matrix(0.0148712, 0, 0, -0.0148898, 29.250281, 381.388569)" fill="none" stroke-linejoin="round" d="M 5039.870849 7070.288573 C 6171.724964 7069.501541 7089.501311 6151.560724 7090.289327 5019.809742 C 7091.077343 3888.321104 6174.351685 2971.429662 5042.760242 2972.216693 C 3910.906127 2973.003725 2992.867109 3890.944542 2992.341764 5022.695524 C 2991.553748 6154.184162 3908.279406 7071.075604 5039.870849 7070.288573 Z M 5039.870849 7070.288573 " stroke="#100f0d" stroke-width="80" stroke-opacity="1" stroke-miterlimit="10"/><path stroke-linecap="round" transform="matrix(0.0148712, 0, 0, -0.0148898, 29.250281, 381.388569)" fill="none" stroke-linejoin="round" d="M 5041.18421 4770.845514 C 4903.281353 4770.845514 4791.383035 4883.128643 4791.383035 5021.383805 C 4791.383035 5159.376623 4903.281353 5271.659752 5041.18421 5271.659752 C 5179.349739 5271.659752 5291.248057 5159.376623 5291.248057 5021.383805 C 5291.248057 4883.128643 5179.349739 4770.845514 5041.18421 4770.845514 Z M 5041.18421 4770.845514 " stroke="#100f0d" stroke-width="80" stroke-opacity="1" stroke-miterlimit="10"/><g clip-path="url(#id5)"><path stroke-linecap="round" transform="matrix(0.0148712, 0, 0, -0.0148898, 29.250281, 381.388569)" fill="none" stroke-linejoin="round" d="M 40.169938 5040.272881 C 55.667593 7800.129417 2287.85517 10033.199648 5046.962996 10034.511367 C 7805.80815 10035.823086 10041.410465 7799.604729 10040.097104 5039.748193 C 10038.783743 2261.002905 7819.729772 46.296738 5041.972226 40.000487 C 2268.942778 33.704236 24.672284 2275.169469 40.169938 5040.272881 Z M 40.169938 5040.272881 " stroke="#100f0d" stroke-width="80" stroke-opacity="1" stroke-miterlimit="10"/></g><path stroke-linecap="round" transform="matrix(0.0148712, 0, 0, -0.0148898, 29.250281, 381.388569)" fill="none" stroke-linejoin="round" d="M 5039.608177 7521.257497 C 6420.475451 7520.470465 7540.509321 6400.262609 7541.297337 5019.547399 C 7542.085353 3638.832188 6423.627516 2520.460738 5043.022914 2521.247769 C 3662.155641 2522.034801 2542.121771 3642.242657 2541.333754 5022.957867 C 2540.283066 6403.673078 3659.003575 7522.044528 5039.608177 7521.257497 Z M 5039.608177 7521.257497 " stroke="#100f0d" stroke-width="80" stroke-opacity="1" stroke-miterlimit="10"/></svg>