<svg xmlns="http://www.w3.org/2000/svg" xmlns:xlink="http://www.w3.org/1999/xlink" width="500" zoomAndPan="magnify" viewBox="0 0 375 374.999991" height="500" preserveAspectRatio="xMidYMid meet" version="1.0"><defs><clipPath id="id1"><path d="M 89 62 L 303 62 L 303 374.949219 L 89 374.949219 Z M 89 62 " clip-rule="nonzero"/></clipPath><clipPath id="id2"><path d="M 335.773438 133.472656 L 350.597656 133.472656 L 350.597656 139.210938 L 335.773438 139.210938 Z M 335.773438 133.472656 " clip-rule="nonzero"/></clipPath><clipPath id="id3"><path d="M 24.375 204 L 41 204 L 41 210 L 24.375 210 Z M 24.375 204 " clip-rule="nonzero"/></clipPath></defs><g clip-path="url(#id1)"><path fill="#ffffff" d="M 187.914062 176.414062 C 189.523438 174.464844 189.710938 171.976562 190.066406 169.511719 C 190.699219 165.105469 191.394531 160.703125 190.277344 156.273438 C 189.765625 154.253906 188.472656 153.039062 187.011719 153.1875 C 185.09375 153.382812 184.265625 154.796875 183.652344 156.351562 C 183.402344 156.988281 183.316406 157.730469 183.332031 158.417969 C 183.464844 164.519531 184.464844 170.453125 186.878906 176.09375 C 186.9375 176.230469 187.304688 176.234375 187.914062 176.414062 Z M 211.933594 179.332031 C 212.777344 178.28125 213.21875 177.96875 213.335938 177.5625 C 215.308594 170.433594 215.488281 163.207031 214.316406 155.9375 C 214.136719 154.808594 213.613281 153.714844 213.117188 152.664062 C 212.691406 151.761719 210.8125 151.566406 210.003906 152.210938 C 208.214844 153.636719 207.464844 155.65625 207.34375 157.773438 C 206.925781 165.121094 207.941406 172.199219 211.933594 179.332031 Z M 237.265625 180.203125 C 236.605469 178.222656 235.894531 175.519531 234.792969 172.980469 C 233.992188 171.125 231.296875 171.125 230.140625 172.875 C 226.449219 178.460938 224.4375 184.65625 223.726562 191.28125 C 223.5625 192.832031 224.65625 193.984375 226.171875 194.125 C 231.191406 194.59375 234.914062 192.140625 236.195312 187.273438 C 236.730469 185.25 236.84375 183.117188 237.265625 180.203125 Z M 174.589844 192.824219 C 174.640625 187.265625 172.359375 183.003906 171.269531 178.507812 C 170.671875 176.03125 169.542969 173.605469 168.242188 171.40625 C 167.449219 170.074219 166.003906 168.96875 164.609375 168.203125 C 162.199219 166.878906 159.777344 168.214844 159.304688 170.867188 C 159.222656 171.332031 159.136719 171.800781 159.125 172.265625 C 158.859375 181.136719 164.820312 189.421875 174.589844 192.824219 Z M 182.050781 361.417969 C 184.164062 367.625 184.660156 368.234375 189.574219 369.714844 C 191.585938 370.320312 193.679688 370.703125 195.757812 371.085938 C 203.046875 372.433594 210.273438 371.242188 217.230469 370.738281 C 220.070312 368.339844 221.574219 365.558594 223.109375 361.761719 C 218.046875 361.023438 213.707031 362.445312 209.367188 362.359375 C 204.660156 362.265625 199.945312 362.304688 195.246094 362.074219 C 190.871094 361.859375 186.546875 360.28125 182.050781 361.417969 Z M 172.296875 349.78125 C 172.191406 352.367188 172.664062 353.898438 174.574219 354.472656 C 178.644531 355.695312 182.671875 357.414062 186.835938 357.898438 C 197.421875 359.132812 208.066406 359.480469 218.667969 357.703125 C 221.003906 357.3125 223.394531 357.210938 225.699219 356.710938 C 228.179688 356.175781 230.0625 354.800781 230.199219 351.964844 C 230.28125 350.386719 230.214844 348.800781 230.214844 346.757812 C 225.214844 348.007812 220.683594 349.15625 216.140625 350.269531 C 202.601562 353.574219 189.066406 354.578125 175.527344 350.230469 C 174.679688 349.960938 173.738281 349.972656 172.296875 349.78125 Z M 232.628906 324.089844 C 231.207031 324.089844 230.296875 323.96875 229.429688 324.113281 C 224.542969 324.921875 219.644531 325.707031 214.789062 326.675781 C 205.914062 328.441406 197.0625 328.910156 188.039062 327.601562 C 182.425781 326.789062 176.820312 326.105469 171.347656 324.558594 C 170.234375 324.246094 169.035156 324.203125 167.871094 324.171875 C 167.476562 324.164062 167.070312 324.570312 166.207031 325.035156 C 166.625 326.859375 167.070312 328.820312 167.589844 331.109375 C 172.488281 332.617188 177.105469 334.59375 181.921875 335.414062 C 189.828125 336.761719 197.867188 337.53125 205.910156 336.746094 C 214.558594 335.902344 223.457031 335.945312 231.097656 330.789062 C 231.46875 330.539062 231.71875 330.113281 232.300781 329.460938 C 232.390625 327.996094 232.5 326.203125 232.628906 324.089844 Z M 168.613281 335.0625 C 169.425781 339.121094 169.972656 341.867188 170.605469 345.03125 C 173.460938 346.117188 176.238281 347.417969 179.15625 348.238281 C 187.976562 350.714844 196.890625 350.597656 205.90625 349.167969 C 214.363281 347.828125 222.453125 345.296875 230.507812 342.777344 C 231.375 339.167969 231.335938 339.167969 230.488281 336.171875 C 210.160156 341.695312 189.886719 341.015625 168.613281 335.0625 Z M 164.472656 313.148438 C 165.242188 319.730469 165.242188 319.734375 170.121094 321.105469 C 186.628906 325.742188 203.238281 326.082031 219.941406 322.222656 C 224.519531 321.160156 229.097656 320.097656 233.398438 319.101562 C 234.347656 316.8125 234.882812 315.058594 233.496094 313.804688 C 226.039062 314.007812 218.929688 313.796875 211.914062 314.5 C 203.601562 315.335938 195.390625 314.695312 187.144531 314.125 C 184.117188 313.914062 181.09375 313.515625 178.074219 313.054688 C 173.785156 312.398438 169.234375 311.054688 164.472656 313.148438 Z M 211.855469 189.230469 C 209.964844 190.730469 208.195312 192.292969 206.273438 193.628906 C 203.601562 195.484375 200.875 195.785156 197.558594 194.757812 C 193.601562 193.539062 190.660156 190.835938 187.074219 188.457031 C 184.503906 191.3125 182.183594 193.894531 179.71875 196.636719 C 179.890625 198.496094 179.894531 200.394531 180.253906 202.226562 C 181.992188 211.105469 181.980469 220.089844 181.945312 229.074219 C 181.921875 234.992188 181.730469 240.914062 181.8125 246.828125 C 181.929688 255.105469 182.5 263.386719 182.390625 271.660156 C 182.246094 282.78125 182.289062 293.894531 182.976562 304.996094 C 183.074219 306.585938 183.472656 308.160156 183.726562 309.683594 C 184.90625 310.167969 185.761719 310.796875 186.644531 310.832031 C 193.976562 311.128906 201.308594 311.382812 208.644531 311.484375 C 209.9375 311.5 211.242188 310.746094 212.730469 310.289062 C 213.074219 298.425781 213.460938 286.835938 213.730469 275.242188 C 213.863281 269.5625 213.691406 263.871094 213.832031 258.191406 C 213.949219 253.222656 214.34375 248.261719 214.570312 243.296875 C 215.238281 228.632812 214.929688 213.898438 218.082031 199.4375 C 218.28125 198.523438 218.277344 197.566406 218.425781 196.050781 C 215.976562 194.339844 215.394531 190.59375 211.855469 189.230469 Z M 179.375 309.734375 C 179.472656 307.246094 179.632812 305.640625 179.585938 304.042969 C 179.402344 297.414062 179.054688 290.789062 178.957031 284.15625 C 178.835938 275.867188 178.988281 267.574219 178.878906 259.277344 C 178.660156 243.167969 178.386719 227.054688 178.023438 210.941406 C 177.925781 206.46875 177.753906 201.949219 176.011719 198.140625 C 175.484375 197.644531 175.332031 197.367188 175.144531 197.339844 C 163.855469 195.714844 156.734375 183.449219 156.054688 172.816406 C 155.9375 170.992188 156.394531 169.066406 156.921875 167.285156 C 157.421875 165.570312 158.808594 164.683594 160.671875 164.523438 C 164.460938 164.199219 167.796875 164.957031 169.984375 168.367188 C 170.996094 169.945312 172.023438 171.574219 172.648438 173.324219 C 174.394531 178.230469 175.902344 183.222656 177.585938 188.152344 C 177.945312 189.191406 178.667969 190.105469 179.253906 191.128906 C 185.25 186.085938 185.398438 185.621094 183.3125 179.019531 C 182.957031 177.886719 182.566406 176.761719 182.289062 175.609375 C 180.84375 169.609375 179.464844 163.578125 179.9375 157.347656 C 180.265625 153.078125 182.941406 150.046875 186.21875 149.859375 C 189.941406 149.648438 192.671875 152.503906 193.058594 157.359375 C 193.53125 163.296875 193.273438 169.203125 191.6875 174.996094 C 191.125 177.054688 190.625 179.128906 190.167969 181.210938 C 189.800781 182.90625 190.015625 184.546875 191.195312 185.898438 C 193.996094 189.101562 197.628906 190.929688 201.800781 190.863281 C 205.390625 190.804688 207.925781 188.609375 209.320312 184.980469 C 208.445312 182.675781 207.59375 180.222656 206.589844 177.832031 C 203.847656 171.3125 203.246094 164.519531 204.195312 157.605469 C 204.515625 155.3125 205.269531 152.945312 206.398438 150.9375 C 208.640625 146.960938 213.28125 147.160156 215.332031 151.351562 C 216.453125 153.644531 217.097656 156.253906 217.488281 158.792969 C 218.464844 165.1875 218.097656 171.5625 216.566406 177.859375 C 216.011719 180.140625 215.527344 182.4375 215.035156 184.632812 C 216.300781 186.882812 217.570312 188.757812 220.304688 189.789062 C 221.71875 186.722656 222.023438 183.667969 222.949219 180.8125 C 224.117188 177.230469 225.570312 173.726562 227.195312 170.324219 C 228.324219 167.941406 230.640625 166.960938 233.175781 167.523438 C 235.519531 168.042969 237.820312 169.210938 238.324219 171.851562 C 239.4375 177.675781 240.449219 183.5 238.652344 189.433594 C 236.917969 195.183594 232.691406 198.449219 226.648438 198.382812 C 225.300781 198.367188 223.953125 198.5 222.195312 198.578125 C 221.375 203.5 219.574219 207.886719 219.246094 212.65625 C 218.9375 217.136719 218.351562 221.597656 218.117188 226.082031 C 217.363281 240.511719 216.710938 254.941406 216.03125 269.378906 C 216 270.082031 216.148438 270.796875 216.160156 271.503906 C 216.261719 278.132812 216.402344 284.765625 216.421875 291.394531 C 216.433594 295.421875 216.230469 299.449219 216.164062 303.476562 C 216.121094 305.859375 216.332031 308.203125 217.96875 310.472656 C 222.78125 311.976562 227.652344 310.449219 232.492188 309.699219 C 238.648438 308.746094 240.558594 306.859375 241.703125 300.625 C 242.511719 296.207031 243 291.710938 243.324219 287.230469 C 244.257812 274.128906 247.742188 262.152344 256.910156 252.164062 C 262.027344 246.59375 266.628906 240.53125 271.246094 234.523438 C 276.992188 227.050781 283.597656 220.128906 286.632812 210.84375 C 287.277344 208.859375 288.65625 207.109375 289.71875 205.265625 C 290.546875 203.832031 291.640625 202.507812 292.226562 200.988281 C 296.09375 190.980469 298.277344 180.5625 299.40625 169.917969 C 299.582031 168.285156 299.503906 166.597656 299.320312 164.960938 C 297.691406 150.242188 293.855469 136.140625 287.644531 122.664062 C 279.121094 104.167969 267.226562 88.601562 249.625 77.828125 C 238.109375 70.789062 225.898438 66.265625 212.171875 65.851562 C 205.546875 65.648438 198.929688 65.761719 192.3125 65.679688 C 183.253906 65.566406 174.421875 66.65625 165.757812 69.628906 C 160.570312 71.40625 155.714844 73.738281 150.808594 76.078125 C 140.207031 81.140625 130.738281 87.921875 122.425781 96.039062 C 117.246094 101.101562 112.800781 107.148438 109.03125 113.363281 C 102.769531 123.695312 97.910156 134.789062 94.882812 146.550781 C 92.871094 154.355469 91.382812 162.257812 92.234375 170.410156 C 92.699219 174.878906 92.976562 179.367188 93.355469 183.84375 C 94.035156 191.925781 95.785156 199.773438 98.988281 207.230469 C 101.226562 212.441406 103.472656 217.703125 106.296875 222.609375 C 111.617188 231.871094 117.636719 240.582031 126.1875 247.375 C 136.171875 255.304688 143.609375 265.402344 148.925781 276.953125 C 150.691406 280.792969 151.503906 285.066406 152.863281 289.101562 C 154.367188 293.585938 155.953125 298.042969 157.585938 302.476562 C 158.859375 305.945312 161.621094 307.710938 165.097656 308.203125 C 169.53125 308.828125 174.003906 309.175781 179.375 309.734375 Z M 200.824219 62.488281 C 216.191406 61.460938 229.339844 64.007812 241.9375 69.382812 C 245.402344 70.859375 248.867188 72.605469 251.859375 74.859375 C 258.417969 79.792969 265.554688 83.777344 271.027344 90.40625 C 280.816406 102.25 288.226562 115.21875 294.066406 129.335938 C 298.09375 139.070312 300.15625 149.230469 302.160156 159.449219 C 303.410156 165.824219 302.980469 172.1875 301.703125 178.515625 C 300.8125 182.925781 299.953125 187.347656 299.007812 191.746094 C 297.191406 200.152344 293.25 207.726562 289.570312 215.386719 C 288.460938 217.707031 286.875 219.847656 285.257812 221.871094 C 277.871094 231.132812 270.285156 240.238281 262.980469 249.5625 C 256.070312 258.386719 250.398438 267.929688 247.523438 278.902344 C 246.917969 281.191406 246.421875 283.519531 246.082031 285.859375 C 245.195312 291.949219 244.554688 298.074219 243.535156 304.136719 C 243.191406 306.160156 242.460938 308.503906 241.085938 309.878906 C 238.675781 312.300781 238.109375 315.164062 237.601562 318.203125 C 235.816406 328.921875 233.523438 339.589844 234.050781 350.554688 C 234.199219 353.621094 233.417969 356.167969 230.707031 357.890625 C 228.234375 359.46875 226.769531 361.878906 225.179688 364.269531 C 216.753906 376.957031 219.207031 374.566406 206.015625 374.914062 C 199.582031 375.085938 193.277344 374.632812 187.132812 372.390625 C 184.523438 371.4375 182.558594 370.023438 181.046875 367.800781 C 179.847656 366.039062 178.703125 364.226562 177.371094 362.570312 C 176.34375 361.296875 175.253906 359.628906 173.855469 359.179688 C 170.265625 358.027344 169.515625 355.4375 168.894531 352.214844 C 166.652344 340.59375 164.132812 329.027344 161.8125 317.421875 C 161.285156 314.808594 160.011719 312.804688 158.523438 310.597656 C 155.78125 306.53125 153.65625 301.976562 151.800781 297.40625 C 150.394531 293.925781 149.738281 290.125 148.867188 286.433594 C 146.867188 277.992188 143.128906 270.5 137.5625 263.777344 C 133.007812 258.277344 128.113281 253.199219 122.730469 248.515625 C 113.472656 240.457031 106.835938 230.390625 101.28125 219.5625 C 99.773438 216.613281 98.214844 213.679688 96.90625 210.640625 C 94.367188 204.753906 92.453125 198.6875 91.46875 192.300781 C 89.699219 180.789062 88.550781 169.246094 89.277344 157.605469 C 89.710938 150.699219 91.695312 144.046875 94.097656 137.628906 C 96.910156 130.109375 99.265625 122.378906 103.589844 115.460938 C 115.980469 95.625 132.644531 80.808594 153.988281 71.0625 C 167.429688 64.929688 181.339844 61.96875 196.050781 62.480469 C 198.183594 62.554688 200.316406 62.488281 200.824219 62.488281 " fill-opacity="1" fill-rule="nonzero"/></g><path fill="#ffffff" d="M 337.570312 206.011719 C 329.609375 205.601562 324.195312 202.695312 319.503906 198.210938 C 319.257812 197.976562 319.199219 197.089844 319.394531 196.933594 C 319.867188 196.550781 320.757812 196.046875 321.101562 196.246094 C 326.164062 199.164062 331.167969 202.1875 337.570312 206.011719 " fill-opacity="1" fill-rule="nonzero"/><path fill="#ffffff" d="M 137.601562 0.0117188 C 142.753906 4.132812 141.929688 10.207031 142.988281 15.667969 C 140.289062 10.742188 138.636719 5.476562 137.601562 0.0117188 " fill-opacity="1" fill-rule="nonzero"/><g clip-path="url(#id2)"><path fill="#ffffff" d="M 335.875 138.738281 C 338.285156 137.976562 340.71875 137.285156 343.097656 136.433594 C 345.300781 135.648438 347.441406 134.695312 349.492188 133.867188 C 350.5625 134.664062 351.066406 135.648438 350.011719 136.230469 C 345.660156 138.628906 340.953125 139.765625 335.875 138.738281 " fill-opacity="1" fill-rule="nonzero"/></g><g clip-path="url(#id3)"><path fill="#ffffff" d="M 24.375 209.714844 C 28.523438 205.429688 33.742188 204.394531 40.851562 204.730469 C 34.746094 207.441406 29.726562 208.96875 24.375 209.714844 " fill-opacity="1" fill-rule="nonzero"/></g><path fill="#ffffff" d="M 71.300781 253.660156 C 73.746094 249.675781 76.53125 248.1875 81.816406 247.523438 C 79.679688 251.105469 78.8125 251.640625 71.300781 253.660156 " fill-opacity="1" fill-rule="nonzero"/><path fill="#ffffff" d="M 57.753906 47.09375 C 59.300781 46.964844 60.378906 46.539062 60.800781 46.894531 C 63.980469 49.570312 67.027344 52.402344 70.332031 55.378906 C 69.402344 55.609375 68.789062 55.9375 68.621094 55.78125 C 65.433594 52.824219 61.003906 51.371094 57.753906 47.09375 " fill-opacity="1" fill-rule="nonzero"/><path fill="#ffffff" d="M 328.382812 76.160156 C 327.625 82.476562 321.875 82.558594 318.660156 86.082031 C 317.609375 84.054688 319.214844 83.714844 319.890625 83.023438 C 320.878906 82.019531 322.085938 81.230469 323.148438 80.289062 C 324.03125 79.5 324.777344 78.554688 325.695312 77.816406 C 326.511719 77.164062 327.480469 76.703125 328.382812 76.160156 " fill-opacity="1" fill-rule="nonzero"/><path fill="#ffffff" d="M 279.914062 15.304688 C 279.191406 21.128906 276.4375 24.46875 275.351562 28.4375 C 275.285156 22.820312 276.53125 19 279.914062 15.304688 " fill-opacity="1" fill-rule="nonzero"/><path fill="#ffffff" d="M 209.601562 4.257812 C 209.972656 5.496094 210.488281 6.359375 210.445312 7.195312 C 210.179688 12.476562 211.03125 17.808594 210.101562 23.480469 C 207.472656 19.757812 207.3125 11.332031 209.601562 4.257812 " fill-opacity="1" fill-rule="nonzero"/><path fill="#ffffff" d="M 292.230469 253.277344 C 298.90625 257.832031 298.90625 257.832031 299.175781 260.691406 C 295.820312 258.859375 293.488281 256.539062 292.230469 253.277344 " fill-opacity="1" fill-rule="nonzero"/><path fill="#ffffff" d="M 36.554688 123.152344 C 38.78125 123.722656 41.007812 124.296875 43.230469 124.871094 C 40.632812 125.476562 38.046875 125.894531 36.691406 122.996094 L 36.554688 123.152344 " fill-opacity="1" fill-rule="nonzero"/><path fill="#ffffff" d="M 36.691406 122.996094 C 33.269531 123.164062 33.273438 123.140625 30.5625 121.636719 C 33.570312 121.664062 33.570312 121.65625 36.550781 123.164062 C 36.554688 123.152344 36.691406 122.996094 36.691406 122.996094 " fill-opacity="1" fill-rule="nonzero"/></svg>