<svg xmlns="http://www.w3.org/2000/svg" xmlns:xlink="http://www.w3.org/1999/xlink" width="500" zoomAndPan="magnify" viewBox="0 0 375 374.999991" height="500" preserveAspectRatio="xMidYMid meet" version="1.0"><defs><filter x="0%" y="0%" width="100%" height="100%" id="id1"><feColorMatrix values="0 0 0 0 1 0 0 0 0 1 0 0 0 0 1 0 0 0 1 0" color-interpolation-filters="sRGB"/></filter><g/><mask id="id2"><g filter="url(#id1)"><rect x="-37.5" width="450" fill="#000000" y="-37.499999" height="449.999989" fill-opacity="0.6471"/></g></mask><clipPath id="id3"><path d="M 12 25 L 353 25 L 353 180 L 12 180 Z M 12 25 " clip-rule="nonzero"/></clipPath><clipPath id="id4"><path d="M 0.84375 63.75 L 338.726562 1.890625 L 364.253906 141.324219 L 26.371094 203.183594 Z M 0.84375 63.75 " clip-rule="nonzero"/></clipPath><clipPath id="id5"><path d="M 0.84375 63.75 L 338.726562 1.890625 L 364.253906 141.324219 L 26.371094 203.183594 Z M 0.84375 63.75 " clip-rule="nonzero"/></clipPath><clipPath id="id6"><rect x="0" width="365" y="0" height="205"/></clipPath></defs><g mask="url(#id2)"><g transform="matrix(1, 0, 0, 1, 5, 85)"><g clip-path="url(#id6)"><g clip-path="url(#id3)"><g clip-path="url(#id4)"><g clip-path="url(#id5)"><path fill="#ffffff" d="M 349.308594 59.933594 C 343.464844 28.007812 263.230469 15.910156 170.453125 32.894531 C 77.675781 49.882812 6.933594 89.617188 12.777344 121.542969 C 13.5 125.324219 15.085938 128.691406 17.542969 131.652344 C 16.585938 133.753906 15.957031 135.953125 15.652344 138.242188 C 15.347656 140.535156 15.378906 142.820312 15.75 145.101562 C 21.597656 177.027344 101.839844 189.195312 194.617188 172.210938 C 287.394531 155.226562 358.125 115.417969 352.28125 83.492188 C 351.554688 79.714844 349.964844 76.347656 347.515625 73.382812 C 348.46875 71.28125 349.097656 69.082031 349.402344 66.792969 C 349.707031 64.5 349.675781 62.214844 349.308594 59.933594 Z M 14.105469 121.300781 C 8.394531 90.109375 78.625 51.003906 170.683594 34.152344 C 262.742188 17.296875 342.273438 28.984375 347.984375 60.175781 C 348.328125 62.226562 348.382812 64.289062 348.152344 66.355469 C 347.917969 68.421875 347.402344 70.417969 346.609375 72.339844 C 325.878906 48.972656 254.464844 41.589844 173.449219 56.421875 C 94.605469 70.855469 31.703125 101.765625 18.160156 130.3125 C 16.09375 127.628906 14.742188 124.625 14.105469 121.300781 Z M 346.0625 73.652344 C 333.609375 101.871094 270.570312 132.816406 191.402344 147.3125 C 110.089844 162.199219 38.558594 154.882812 19.027344 131.394531 C 31.480469 103.175781 94.519531 72.226562 173.691406 57.734375 C 255.003906 42.859375 326.546875 50.234375 346.066406 73.664062 Z M 350.988281 83.757812 C 356.699219 114.949219 286.46875 154.054688 194.410156 170.90625 C 102.351562 187.761719 22.824219 176.089844 17.113281 144.898438 C 16.765625 142.84375 16.710938 140.785156 16.945312 138.71875 C 17.179688 136.652344 17.691406 134.65625 18.484375 132.734375 C 39.21875 156.101562 110.628906 163.484375 191.648438 148.652344 C 270.492188 134.21875 333.460938 103.296875 346.9375 74.757812 C 349 77.441406 350.351562 80.445312 350.992188 83.769531 Z M 350.988281 83.757812 " fill-opacity="1" fill-rule="nonzero"/></g></g></g></g></g></g><g fill="#ffffff" fill-opacity="1"><g transform="translate(150.399729, 173.956805)"><g><path d="M 2.402344 0 L 15.1875 0 L 15.1875 -0.382812 C 11.96875 -0.863281 11.488281 -4.46875 11.488281 -11.007812 C 11.488281 -23.699219 11.488281 -36.339844 11.488281 -49.027344 L 11.105469 -49.027344 C 10.191406 -47.875 7.5 -45.566406 2.738281 -45.566406 L 2.738281 -45.183594 C 5.960938 -44.703125 6.105469 -42.15625 6.105469 -37.058594 C 6.105469 -28.359375 6.105469 -19.707031 6.105469 -11.007812 C 6.105469 -4.46875 5.625 -0.863281 2.402344 -0.382812 Z M 2.402344 0 "/></g></g></g><g fill="#ffffff" fill-opacity="1"><g transform="translate(163.662687, 173.956805)"><g><path d="M 3.84375 -15.046875 C 3.84375 -5.429688 9.757812 0.960938 17.304688 0.960938 C 24.851562 0.960938 30.714844 -5.429688 30.714844 -15.046875 C 30.714844 -24.609375 24.851562 -31.003906 17.304688 -31.003906 C 9.757812 -31.003906 3.84375 -24.609375 3.84375 -15.046875 Z M 14.949219 -29.417969 C 25.765625 -29.417969 30.425781 -0.625 19.660156 -0.625 C 8.796875 -0.625 4.132812 -29.417969 14.949219 -29.417969 Z M 14.949219 -29.417969 "/></g></g></g><g fill="#ffffff" fill-opacity="1"><g transform="translate(193.89032, 173.956805)"><g><path d="M 11.390625 -30.042969 L 11.390625 -41.722656 C 11.390625 -46.144531 14.226562 -47.828125 17.160156 -47.828125 C 21.4375 -47.828125 19.226562 -42.347656 22.878906 -42.394531 C 24.320312 -42.394531 24.804688 -43.644531 24.804688 -44.605469 C 24.804688 -47.347656 21.003906 -49.027344 17.304688 -49.027344 C 10.621094 -49.027344 6.199219 -46.097656 6.199219 -38.359375 C 6.199219 -37.203125 6.152344 -33.453125 6.152344 -30.042969 L 1.441406 -30.042969 L 1.441406 -28.839844 L 6.152344 -28.839844 C 6.105469 -22.878906 6.054688 -16.96875 6.054688 -11.007812 C 6.054688 -4.46875 5.574219 -0.863281 2.355469 -0.382812 L 2.355469 0 L 15.140625 0 L 15.140625 -0.382812 C 11.921875 -0.863281 11.441406 -4.46875 11.441406 -11.007812 C 11.441406 -22.015625 11.390625 -14.371094 11.390625 -24.035156 L 11.390625 -28.839844 L 16.246094 -28.839844 L 16.246094 -30.042969 Z M 11.390625 -30.042969 "/></g></g></g><g fill="#ffffff" fill-opacity="1"><g transform="translate(207.009104, 173.956805)"><g><path d="M 15.1875 0 L 15.1875 -0.382812 C 11.96875 -0.863281 11.488281 -4.46875 11.488281 -11.007812 L 11.488281 -31.003906 L 11.105469 -31.003906 C 10.191406 -29.851562 7.5 -27.542969 2.738281 -27.542969 L 2.738281 -27.15625 C 5.960938 -26.675781 6.105469 -24.128906 6.105469 -19.035156 L 6.105469 -11.007812 C 6.105469 -4.46875 5.625 -0.863281 2.402344 -0.382812 L 2.402344 0 Z M 8.890625 -41.769531 C 6.824219 -41.769531 5.144531 -40.089844 5.144531 -38.070312 C 5.144531 -36.003906 6.824219 -34.320312 8.890625 -34.320312 C 10.910156 -34.320312 12.59375 -36.003906 12.59375 -38.070312 C 12.59375 -40.089844 10.910156 -41.769531 8.890625 -41.769531 Z M 8.890625 -41.769531 "/></g></g></g><g fill="#ffffff" fill-opacity="1"><g transform="translate(134.567703, 223.200014)"><g><path d="M 9.996094 0.960938 C 16.535156 0.960938 20.910156 -4.613281 23.265625 -8.507812 L 22.253906 -8.699219 C 20.523438 -5.527344 15.8125 -0.242188 10.71875 -0.242188 C 5.863281 -0.242188 4.46875 -5.816406 8.75 -14.804688 C 13.121094 -23.984375 18.746094 -30.042969 22.976562 -30.042969 C 24.996094 -30.042969 26.292969 -28.792969 26.292969 -25.957031 C 26.292969 -20.140625 19.613281 -20.859375 19.613281 -17.832031 C 19.613281 -16.777344 20.667969 -16.246094 21.679688 -16.246094 C 24.753906 -16.246094 27.925781 -21.484375 27.878906 -25.765625 C 27.878906 -28.746094 26.582031 -31.003906 22.398438 -31.003906 C 15.863281 -31.003906 7.402344 -24.804688 3.460938 -15.140625 C 0.144531 -6.96875 3.21875 0.960938 9.996094 0.960938 Z M 9.996094 0.960938 "/></g></g></g><g fill="#ffffff" fill-opacity="1"><g transform="translate(159.076368, 223.200014)"><g><path d="M 7.546875 0.960938 C 10.671875 0.960938 13.988281 -1.972656 17.160156 -6.105469 C 15.765625 -2.164062 17.449219 0.960938 20.378906 0.960938 C 24.804688 0.960938 26.917969 -1.828125 28.839844 -5.960938 L 27.78125 -5.960938 C 26.871094 -3.652344 24.273438 -0.480469 22.734375 -0.480469 C 19.898438 -0.480469 23.023438 -6.824219 23.648438 -8.074219 L 34.65625 -29.945312 L 29.03125 -29.945312 C 28.167969 -28.265625 27.15625 -26.195312 26.003906 -23.984375 C 26.917969 -27.015625 26.582031 -31.003906 20.957031 -31.003906 C 5.71875 -31.003906 -5.960938 0.960938 7.546875 0.960938 Z M 9.375 -15.910156 C 12.738281 -22.589844 17.449219 -29.753906 22.6875 -29.753906 C 31.4375 -29.753906 14.804688 -0.144531 7.929688 -0.144531 C 2.59375 -0.144531 6.632812 -10.382812 9.375 -15.910156 Z M 9.375 -15.910156 "/></g></g></g><g fill="#ffffff" fill-opacity="1"><g transform="translate(189.400119, 223.200014)"><g><path d="M 17.59375 -31.242188 L 13.074219 -31.242188 L 12.59375 -30.28125 L 17.113281 -30.28125 L 1.972656 0 L 7.355469 0 L 22.496094 -30.28125 L 29.753906 -30.28125 L 30.234375 -31.242188 L 22.976562 -31.242188 L 25.378906 -36.050781 C 25.957031 -37.253906 27.0625 -39.464844 28.40625 -42.105469 C 30.089844 -45.421875 32.011719 -48.066406 35.136719 -48.066406 C 37.15625 -48.066406 39.65625 -46.578125 39.65625 -43.742188 C 39.65625 -37.925781 32.972656 -40.570312 32.972656 -37.539062 C 32.972656 -36.484375 34.03125 -35.953125 35.042969 -35.953125 C 38.117188 -35.953125 41.242188 -39.269531 41.242188 -43.550781 C 41.242188 -46.53125 38.597656 -49.027344 34.703125 -49.027344 C 25.425781 -49.027344 23.410156 -42.875 19.996094 -36.050781 Z M 17.59375 -31.242188 "/></g></g></g><g fill="#ffffff" fill-opacity="1"><g transform="translate(210.929155, 223.200014)"><g><path d="M 11.679688 0.960938 C 18.21875 0.960938 22.589844 -4.613281 24.945312 -8.507812 L 23.9375 -8.699219 C 22.207031 -5.527344 17.496094 -0.242188 12.402344 -0.242188 C 8.171875 -0.242188 5.289062 -4.421875 7.449219 -11.441406 C 8.605469 -10.765625 10.527344 -10.429688 12.546875 -10.429688 C 20.910156 -10.429688 28.550781 -15.8125 28.550781 -24.371094 C 28.550781 -27.589844 26.582031 -31.003906 21.726562 -31.003906 C 5.382812 -31.003906 -7.019531 0.960938 11.679688 0.960938 Z M 7.882812 -12.691406 C 9.855469 -17.929688 16.871094 -30.042969 22.976562 -30.042969 C 30.8125 -30.042969 20.429688 -11.871094 10.816406 -11.871094 C 9.421875 -11.871094 8.507812 -12.257812 7.882812 -12.691406 Z M 7.882812 -12.691406 "/></g></g></g></svg>