<svg xmlns="http://www.w3.org/2000/svg" xmlns:xlink="http://www.w3.org/1999/xlink" width="500" zoomAndPan="magnify" viewBox="0 0 375 374.999991" height="500" preserveAspectRatio="xMidYMid meet" version="1.0"><defs><filter x="0%" y="0%" width="100%" height="100%" id="id1"><feColorMatrix values="0 0 0 0 1 0 0 0 0 1 0 0 0 0 1 0 0 0 1 0" color-interpolation-filters="sRGB"/></filter><g/><mask id="id2"><g filter="url(#id1)"><rect x="-37.5" width="450" fill="#000000" y="-37.499999" height="449.999989" fill-opacity="0.6471"/></g></mask><clipPath id="id3"><path d="M 12 25 L 353 25 L 353 180 L 12 180 Z M 12 25 " clip-rule="nonzero"/></clipPath><clipPath id="id4"><path d="M 0.84375 63.75 L 338.726562 1.890625 L 364.253906 141.324219 L 26.371094 203.183594 Z M 0.84375 63.75 " clip-rule="nonzero"/></clipPath><clipPath id="id5"><path d="M 0.84375 63.75 L 338.726562 1.890625 L 364.253906 141.324219 L 26.371094 203.183594 Z M 0.84375 63.75 " clip-rule="nonzero"/></clipPath><clipPath id="id6"><rect x="0" width="365" y="0" height="205"/></clipPath></defs><g mask="url(#id2)"><g transform="matrix(1, 0, 0, 1, 5, 85)"><g clip-path="url(#id6)"><g clip-path="url(#id3)"><g clip-path="url(#id4)"><g clip-path="url(#id5)"><path fill="#a8a8a8" d="M 349.308594 59.933594 C 343.464844 28.007812 263.230469 15.910156 170.453125 32.894531 C 77.675781 49.882812 6.933594 89.617188 12.777344 121.542969 C 13.5 125.324219 15.085938 128.691406 17.542969 131.652344 C 16.585938 133.753906 15.957031 135.953125 15.652344 138.242188 C 15.347656 140.535156 15.378906 142.820312 15.75 145.101562 C 21.597656 177.027344 101.839844 189.195312 194.617188 172.210938 C 287.394531 155.226562 358.125 115.417969 352.28125 83.492188 C 351.554688 79.714844 349.964844 76.347656 347.515625 73.382812 C 348.46875 71.28125 349.097656 69.082031 349.402344 66.792969 C 349.707031 64.5 349.675781 62.214844 349.308594 59.933594 Z M 14.105469 121.300781 C 8.394531 90.109375 78.625 51.003906 170.683594 34.152344 C 262.742188 17.296875 342.273438 28.984375 347.984375 60.175781 C 348.328125 62.226562 348.382812 64.289062 348.152344 66.355469 C 347.917969 68.421875 347.402344 70.417969 346.609375 72.339844 C 325.878906 48.972656 254.464844 41.589844 173.449219 56.421875 C 94.605469 70.855469 31.703125 101.765625 18.160156 130.3125 C 16.09375 127.628906 14.742188 124.625 14.105469 121.300781 Z M 346.0625 73.652344 C 333.609375 101.871094 270.570312 132.816406 191.402344 147.3125 C 110.089844 162.199219 38.558594 154.882812 19.027344 131.394531 C 31.480469 103.175781 94.519531 72.226562 173.691406 57.734375 C 255.003906 42.859375 326.546875 50.234375 346.066406 73.664062 Z M 350.988281 83.757812 C 356.699219 114.949219 286.46875 154.054688 194.410156 170.90625 C 102.351562 187.761719 22.824219 176.089844 17.113281 144.898438 C 16.765625 142.84375 16.710938 140.785156 16.945312 138.71875 C 17.179688 136.652344 17.691406 134.65625 18.484375 132.734375 C 39.21875 156.101562 110.628906 163.484375 191.648438 148.652344 C 270.492188 134.21875 333.460938 103.296875 346.9375 74.757812 C 349 77.441406 350.351562 80.445312 350.992188 83.769531 Z M 350.988281 83.757812 " fill-opacity="1" fill-rule="nonzero"/></g></g></g></g></g></g><g fill="#ededed" fill-opacity="1"><g transform="translate(150.393867, 174.280213)"><g><path d="M 2.402344 0 L 15.191406 0 L 15.191406 -0.382812 C 11.96875 -0.867188 11.488281 -4.46875 11.488281 -11.007812 C 11.488281 -23.699219 11.488281 -36.34375 11.488281 -49.035156 L 11.105469 -49.035156 C 10.191406 -47.878906 7.5 -45.570312 2.738281 -45.570312 L 2.738281 -45.1875 C 5.960938 -44.707031 6.105469 -42.160156 6.105469 -37.0625 C 6.105469 -28.363281 6.105469 -19.710938 6.105469 -11.007812 C 6.105469 -4.46875 5.625 -0.867188 2.402344 -0.382812 Z M 2.402344 0 "/></g></g></g><g fill="#ededed" fill-opacity="1"><g transform="translate(163.661752, 174.280213)"><g><path d="M 3.847656 -15.046875 C 3.847656 -5.433594 9.757812 0.960938 17.304688 0.960938 C 24.851562 0.960938 30.71875 -5.433594 30.71875 -15.046875 C 30.71875 -24.613281 24.851562 -31.007812 17.304688 -31.007812 C 9.757812 -31.007812 3.847656 -24.613281 3.847656 -15.046875 Z M 14.949219 -29.421875 C 25.765625 -29.421875 30.429688 -0.625 19.660156 -0.625 C 8.796875 -0.625 4.132812 -29.421875 14.949219 -29.421875 Z M 14.949219 -29.421875 "/></g></g></g><g fill="#ededed" fill-opacity="1"><g transform="translate(193.899051, 174.280213)"><g><path d="M 11.394531 -30.046875 L 11.394531 -41.726562 C 11.394531 -46.148438 14.230469 -47.832031 17.160156 -47.832031 C 21.441406 -47.832031 19.230469 -42.351562 22.882812 -42.398438 C 24.324219 -42.398438 24.804688 -43.648438 24.804688 -44.609375 C 24.804688 -47.351562 21.007812 -49.035156 17.304688 -49.035156 C 10.625 -49.035156 6.203125 -46.101562 6.203125 -38.363281 C 6.203125 -37.207031 6.152344 -33.457031 6.152344 -30.046875 L 1.441406 -30.046875 L 1.441406 -28.84375 L 6.152344 -28.84375 C 6.105469 -22.882812 6.058594 -16.96875 6.058594 -11.007812 C 6.058594 -4.46875 5.578125 -0.867188 2.355469 -0.382812 L 2.355469 0 L 15.144531 0 L 15.144531 -0.382812 C 11.921875 -0.867188 11.441406 -4.46875 11.441406 -11.007812 C 11.441406 -22.015625 11.394531 -14.375 11.394531 -24.035156 L 11.394531 -28.84375 L 16.25 -28.84375 L 16.25 -30.046875 Z M 11.394531 -30.046875 "/></g></g></g><g fill="#ededed" fill-opacity="1"><g transform="translate(207.022724, 174.280213)"><g><path d="M 15.191406 0 L 15.191406 -0.382812 C 11.96875 -0.867188 11.488281 -4.46875 11.488281 -11.007812 L 11.488281 -31.007812 L 11.105469 -31.007812 C 10.191406 -29.851562 7.5 -27.546875 2.738281 -27.546875 L 2.738281 -27.160156 C 5.960938 -26.679688 6.105469 -24.132812 6.105469 -19.035156 L 6.105469 -11.007812 C 6.105469 -4.46875 5.625 -0.867188 2.402344 -0.382812 L 2.402344 0 Z M 8.894531 -41.773438 C 6.828125 -41.773438 5.144531 -40.09375 5.144531 -38.074219 C 5.144531 -36.007812 6.828125 -34.324219 8.894531 -34.324219 C 10.914062 -34.324219 12.59375 -36.007812 12.59375 -38.074219 C 12.59375 -40.09375 10.914062 -41.773438 8.894531 -41.773438 Z M 8.894531 -41.773438 "/></g></g></g><g fill="#ededed" fill-opacity="1"><g transform="translate(134.542026, 223.523422)"><g><path d="M 10 0.960938 C 16.535156 0.960938 20.910156 -4.613281 23.265625 -8.507812 L 22.257812 -8.699219 C 20.527344 -5.527344 15.816406 -0.242188 10.71875 -0.242188 C 5.863281 -0.242188 4.46875 -5.816406 8.75 -14.804688 C 13.125 -23.988281 18.746094 -30.046875 22.976562 -30.046875 C 24.996094 -30.046875 26.296875 -28.796875 26.296875 -25.957031 C 26.296875 -20.140625 19.613281 -20.863281 19.613281 -17.835938 C 19.613281 -16.777344 20.671875 -16.25 21.679688 -16.25 C 24.757812 -16.25 27.929688 -21.488281 27.882812 -25.765625 C 27.882812 -28.746094 26.582031 -31.007812 22.402344 -31.007812 C 15.863281 -31.007812 7.402344 -24.804688 3.460938 -15.144531 C 0.144531 -6.96875 3.222656 0.960938 10 0.960938 Z M 10 0.960938 "/></g></g></g><g fill="#ededed" fill-opacity="1"><g transform="translate(159.058762, 223.523422)"><g><path d="M 7.546875 0.960938 C 10.671875 0.960938 13.988281 -1.972656 17.160156 -6.105469 C 15.769531 -2.164062 17.449219 0.960938 20.382812 0.960938 C 24.804688 0.960938 26.921875 -1.828125 28.84375 -5.960938 L 27.785156 -5.960938 C 26.871094 -3.652344 24.277344 -0.480469 22.738281 -0.480469 C 19.902344 -0.480469 23.027344 -6.828125 23.652344 -8.074219 L 34.660156 -29.949219 L 29.035156 -29.949219 C 28.171875 -28.265625 27.160156 -26.199219 26.007812 -23.988281 C 26.921875 -27.015625 26.582031 -31.007812 20.960938 -31.007812 C 5.71875 -31.007812 -5.960938 0.960938 7.546875 0.960938 Z M 9.375 -15.910156 C 12.738281 -22.59375 17.449219 -29.757812 22.691406 -29.757812 C 31.4375 -29.757812 14.804688 -0.144531 7.933594 -0.144531 C 2.597656 -0.144531 6.632812 -10.382812 9.375 -15.910156 Z M 9.375 -15.910156 "/></g></g></g><g fill="#ededed" fill-opacity="1"><g transform="translate(189.392198, 223.523422)"><g><path d="M 17.59375 -31.246094 L 13.074219 -31.246094 L 12.59375 -30.285156 L 17.113281 -30.285156 L 1.972656 0 L 7.355469 0 L 22.496094 -30.285156 L 29.757812 -30.285156 L 30.238281 -31.246094 L 22.976562 -31.246094 L 25.382812 -36.054688 C 25.957031 -37.253906 27.066406 -39.46875 28.410156 -42.109375 C 30.09375 -45.429688 32.015625 -48.070312 35.140625 -48.070312 C 37.160156 -48.070312 39.660156 -46.582031 39.660156 -43.746094 C 39.660156 -37.929688 32.976562 -40.574219 32.976562 -37.542969 C 32.976562 -36.488281 34.035156 -35.957031 35.042969 -35.957031 C 38.121094 -35.957031 41.246094 -39.273438 41.246094 -43.554688 C 41.246094 -46.535156 38.601562 -49.035156 34.707031 -49.035156 C 25.429688 -49.035156 23.410156 -42.878906 19.996094 -36.054688 Z M 17.59375 -31.246094 "/></g></g></g><g fill="#ededed" fill-opacity="1"><g transform="translate(210.928463, 223.523422)"><g><path d="M 11.679688 0.960938 C 18.21875 0.960938 22.59375 -4.613281 24.949219 -8.507812 L 23.941406 -8.699219 C 22.210938 -5.527344 17.5 -0.242188 12.402344 -0.242188 C 8.171875 -0.242188 5.289062 -4.421875 7.449219 -11.441406 C 8.605469 -10.769531 10.527344 -10.429688 12.546875 -10.429688 C 20.910156 -10.429688 28.554688 -15.816406 28.554688 -24.371094 C 28.554688 -27.59375 26.582031 -31.007812 21.726562 -31.007812 C 5.382812 -31.007812 -7.019531 0.960938 11.679688 0.960938 Z M 7.882812 -12.691406 C 9.855469 -17.929688 16.875 -30.046875 22.976562 -30.046875 C 30.8125 -30.046875 20.429688 -11.875 10.816406 -11.875 C 9.421875 -11.875 8.507812 -12.257812 7.882812 -12.691406 Z M 7.882812 -12.691406 "/></g></g></g></svg>