<svg xmlns="http://www.w3.org/2000/svg" xmlns:xlink="http://www.w3.org/1999/xlink" width="500" zoomAndPan="magnify" viewBox="0 0 375 374.999991" height="500" preserveAspectRatio="xMidYMid meet" version="1.0"><defs><clipPath id="id1"><path d="M 60 56.582031 L 315 56.582031 L 315 310 L 60 310 Z M 60 56.582031 " clip-rule="nonzero"/></clipPath></defs><path fill="#ffffff" d="M 187.558594 177.402344 C 184.363281 177.402344 181.765625 179.996094 181.765625 183.191406 C 181.765625 186.382812 184.363281 188.980469 187.558594 188.980469 C 190.757812 188.980469 193.355469 186.382812 193.355469 183.191406 C 193.355469 179.996094 190.757812 177.402344 187.558594 177.402344 Z M 187.558594 192.410156 C 182.472656 192.410156 178.335938 188.273438 178.335938 183.191406 C 178.335938 178.109375 182.472656 173.972656 187.558594 173.972656 C 192.648438 173.972656 196.785156 178.109375 196.785156 183.191406 C 196.785156 188.273438 192.648438 192.410156 187.558594 192.410156 " fill-opacity="1" fill-rule="nonzero"/><path fill="#ffffff" d="M 187.558594 145.007812 C 177.769531 145.007812 167.980469 148.730469 160.527344 156.175781 C 145.621094 171.074219 145.621094 195.308594 160.527344 210.203125 C 175.433594 225.097656 199.6875 225.097656 214.59375 210.203125 C 229.5 195.308594 229.5 171.074219 214.59375 156.175781 C 207.140625 148.730469 197.351562 145.007812 187.558594 145.007812 Z M 187.558594 224.800781 C 176.890625 224.800781 166.222656 220.742188 158.101562 212.628906 C 141.855469 196.394531 141.855469 169.984375 158.101562 153.753906 C 174.34375 137.523438 200.777344 137.523438 217.019531 153.753906 C 233.265625 169.984375 233.265625 196.394531 217.019531 212.628906 C 208.898438 220.742188 198.230469 224.800781 187.558594 224.800781 " fill-opacity="1" fill-rule="nonzero"/><path fill="#ffffff" d="M 187.558594 73.714844 C 159.492188 73.714844 131.421875 84.390625 110.050781 105.742188 C 67.3125 148.449219 67.3125 217.933594 110.050781 260.636719 C 152.789062 303.339844 222.332031 303.339844 265.070312 260.636719 C 307.808594 217.933594 307.808594 148.449219 265.070312 105.742188 C 243.699219 84.390625 215.628906 73.714844 187.558594 73.714844 Z M 187.558594 296.144531 C 157.367188 296.144531 128.976562 284.394531 107.628906 263.0625 C 86.277344 241.726562 74.515625 213.363281 74.515625 183.191406 C 74.515625 153.019531 86.277344 124.65625 107.628906 103.320312 C 128.976562 81.988281 157.367188 70.238281 187.558594 70.238281 C 217.753906 70.238281 246.144531 81.988281 267.492188 103.320312 C 288.84375 124.65625 300.605469 153.019531 300.605469 183.191406 C 300.605469 213.363281 288.84375 241.726562 267.492188 263.0625 C 246.144531 284.394531 217.753906 296.144531 187.558594 296.144531 " fill-opacity="1" fill-rule="nonzero"/><g clip-path="url(#id1)"><path fill="#ffffff" d="M 187.558594 60.0625 C 155.988281 60.0625 124.417969 72.070312 100.386719 96.085938 C 52.316406 144.113281 52.316406 222.265625 100.386719 270.296875 C 148.453125 318.328125 226.667969 318.328125 274.734375 270.296875 C 322.804688 222.265625 322.804688 144.113281 274.734375 96.085938 C 250.699219 72.070312 219.128906 60.0625 187.558594 60.0625 Z M 187.558594 309.804688 C 171.105469 309.804688 155.0625 306.6875 139.878906 300.535156 C 124.160156 294.164062 110.054688 284.808594 97.960938 272.722656 C 85.863281 260.636719 76.5 246.542969 70.125 230.835938 C 63.96875 215.664062 60.84375 199.632812 60.84375 183.191406 C 60.84375 166.746094 63.96875 150.71875 70.125 135.546875 C 76.5 119.839844 85.863281 105.746094 97.960938 93.660156 C 110.054688 81.574219 124.160156 72.21875 139.878906 65.847656 C 155.0625 59.695312 171.105469 56.574219 187.558594 56.574219 C 204.015625 56.574219 220.058594 59.695312 235.242188 65.847656 C 250.960938 72.21875 265.066406 81.574219 277.160156 93.660156 C 289.257812 105.746094 298.621094 119.839844 304.996094 135.546875 C 311.152344 150.71875 314.277344 166.746094 314.277344 183.191406 C 314.277344 199.632812 311.152344 215.664062 304.996094 230.835938 C 298.621094 246.542969 289.257812 260.636719 277.160156 272.722656 C 265.066406 284.808594 250.960938 294.164062 235.242188 300.535156 C 220.058594 306.6875 204.015625 309.804688 187.558594 309.804688 " fill-opacity="1" fill-rule="nonzero"/></g><path fill="#ffffff" d="M 99.171875 184.90625 C 98.226562 184.90625 97.457031 184.136719 97.457031 183.191406 C 97.457031 159.144531 106.828125 136.53125 123.847656 119.527344 C 140.867188 102.523438 163.492188 93.160156 187.558594 93.160156 C 188.507812 93.160156 189.277344 93.925781 189.277344 94.871094 C 189.277344 95.820312 188.507812 96.585938 187.558594 96.585938 C 164.410156 96.585938 142.644531 105.59375 126.273438 121.953125 C 109.902344 138.308594 100.886719 160.058594 100.886719 183.191406 C 100.886719 184.136719 100.121094 184.90625 99.171875 184.90625 " fill-opacity="1" fill-rule="nonzero"/><path fill="#ffffff" d="M 116.777344 184.90625 C 115.828125 184.90625 115.0625 184.136719 115.0625 183.191406 C 115.0625 163.839844 122.601562 145.648438 136.296875 131.96875 C 149.988281 118.285156 168.195312 110.75 187.558594 110.75 C 188.507812 110.75 189.277344 111.515625 189.277344 112.464844 C 189.277344 113.410156 188.507812 114.175781 187.558594 114.175781 C 169.113281 114.175781 151.765625 121.355469 138.722656 134.390625 C 125.675781 147.425781 118.492188 164.757812 118.492188 183.191406 C 118.492188 184.136719 117.722656 184.90625 116.777344 184.90625 " fill-opacity="1" fill-rule="nonzero"/><path fill="#ffffff" d="M 187.558594 273.222656 C 186.613281 273.222656 185.84375 272.457031 185.84375 271.507812 C 185.84375 270.5625 186.613281 269.796875 187.558594 269.796875 C 210.710938 269.796875 232.476562 260.789062 248.847656 244.429688 C 265.21875 228.074219 274.234375 206.324219 274.234375 183.191406 C 274.234375 182.246094 275 181.476562 275.949219 181.476562 C 276.894531 181.476562 277.664062 182.246094 277.664062 183.191406 C 277.664062 207.238281 268.292969 229.847656 251.273438 246.855469 C 234.253906 263.859375 211.628906 273.222656 187.558594 273.222656 " fill-opacity="1" fill-rule="nonzero"/><path fill="#ffffff" d="M 187.558594 255.632812 C 186.613281 255.632812 185.84375 254.863281 185.84375 253.917969 C 185.84375 252.972656 186.613281 252.203125 187.558594 252.203125 C 206.007812 252.203125 223.355469 245.027344 236.398438 231.992188 C 249.445312 218.957031 256.628906 201.625 256.628906 183.191406 C 256.628906 182.246094 257.398438 181.476562 258.34375 181.476562 C 259.292969 181.476562 260.058594 182.246094 260.058594 183.191406 C 260.058594 202.542969 252.519531 220.730469 238.824219 234.414062 C 225.128906 248.097656 206.925781 255.632812 187.558594 255.632812 " fill-opacity="1" fill-rule="nonzero"/></svg>