<svg xmlns="http://www.w3.org/2000/svg" xmlns:xlink="http://www.w3.org/1999/xlink" width="500" zoomAndPan="magnify" viewBox="0 0 375 374.999991" height="500" preserveAspectRatio="xMidYMid meet" version="1.0"><defs><clipPath id="id1"><path d="M 29 48.46875 L 346 48.46875 L 346 365 L 29 365 Z M 29 48.46875 " clip-rule="nonzero"/></clipPath></defs><path fill="#ffffff" d="M 187.5 199.058594 C 183.515625 199.058594 180.277344 202.296875 180.277344 206.273438 C 180.277344 210.253906 183.515625 213.492188 187.5 213.492188 C 191.484375 213.492188 194.722656 210.253906 194.722656 206.273438 C 194.722656 202.296875 191.484375 199.058594 187.5 199.058594 Z M 187.5 217.765625 C 181.160156 217.765625 176 212.609375 176 206.273438 C 176 199.941406 181.160156 194.785156 187.5 194.785156 C 193.839844 194.785156 199 199.941406 199 206.273438 C 199 212.609375 193.839844 217.765625 187.5 217.765625 " fill-opacity="1" fill-rule="nonzero"/><path fill="#ffffff" d="M 187.5 158.679688 C 175.296875 158.679688 163.09375 163.324219 153.800781 172.605469 C 135.21875 191.171875 135.21875 221.378906 153.800781 239.945312 C 172.382812 258.507812 202.617188 258.511719 221.199219 239.945312 C 239.78125 221.378906 239.78125 191.171875 221.199219 172.605469 C 211.90625 163.324219 199.703125 158.679688 187.5 158.679688 Z M 187.5 258.136719 C 174.199219 258.136719 160.902344 253.078125 150.777344 242.964844 C 130.53125 222.734375 130.53125 189.816406 150.777344 169.585938 C 171.027344 149.355469 203.972656 149.355469 224.222656 169.585938 C 244.46875 189.816406 244.46875 222.734375 224.222656 242.964844 C 214.097656 253.078125 200.800781 258.136719 187.5 258.136719 " fill-opacity="1" fill-rule="nonzero"/><path fill="#ffffff" d="M 187.5 69.824219 C 152.511719 69.824219 117.523438 83.128906 90.886719 109.742188 C 37.613281 162.972656 37.613281 249.578125 90.886719 302.804688 C 144.160156 356.03125 230.839844 356.03125 284.113281 302.804688 C 337.386719 249.578125 337.386719 162.972656 284.113281 109.742188 C 257.476562 83.128906 222.488281 69.824219 187.5 69.824219 Z M 187.5 347.0625 C 149.863281 347.0625 114.476562 332.417969 87.863281 305.828125 C 61.25 279.234375 46.589844 243.878906 46.589844 206.273438 C 46.589844 168.671875 61.25 133.316406 87.863281 106.722656 C 114.476562 80.132812 149.863281 65.488281 187.5 65.488281 C 225.136719 65.488281 260.523438 80.132812 287.136719 106.722656 C 313.75 133.316406 328.410156 168.671875 328.410156 206.273438 C 328.410156 243.878906 313.75 279.234375 287.136719 305.828125 C 260.523438 332.417969 225.136719 347.0625 187.5 347.0625 " fill-opacity="1" fill-rule="nonzero"/><g clip-path="url(#id1)"><path fill="#ffffff" d="M 187.5 52.804688 C 148.148438 52.804688 108.792969 67.769531 78.835938 97.703125 C 18.917969 157.570312 18.917969 254.980469 78.835938 314.847656 C 138.753906 374.710938 236.246094 374.710938 296.164062 314.847656 C 356.082031 254.980469 356.082031 157.570312 296.164062 97.703125 C 266.207031 67.769531 226.851562 52.804688 187.5 52.804688 Z M 187.5 364.089844 C 166.988281 364.089844 146.988281 360.203125 128.0625 352.535156 C 108.46875 344.59375 90.890625 332.933594 75.8125 317.867188 C 60.734375 302.804688 49.0625 285.238281 41.113281 265.660156 C 33.441406 246.75 29.546875 226.769531 29.546875 206.273438 C 29.546875 185.78125 33.441406 165.800781 41.113281 146.890625 C 49.0625 127.3125 60.734375 109.746094 75.8125 94.683594 C 90.890625 79.617188 108.46875 67.957031 128.0625 60.015625 C 146.988281 52.347656 166.988281 48.460938 187.5 48.460938 C 208.011719 48.460938 228.011719 52.347656 246.9375 60.015625 C 266.53125 67.957031 284.109375 79.617188 299.1875 94.683594 C 314.265625 109.746094 325.9375 127.3125 333.886719 146.890625 C 341.558594 165.800781 345.453125 185.78125 345.453125 206.273438 C 345.453125 226.769531 341.558594 246.75 333.886719 265.660156 C 325.9375 285.238281 314.265625 302.804688 299.1875 317.867188 C 284.109375 332.933594 266.53125 344.59375 246.9375 352.535156 C 228.011719 360.203125 208.011719 364.089844 187.5 364.089844 " fill-opacity="1" fill-rule="nonzero"/></g><path fill="#ffffff" d="M 77.324219 208.410156 C 76.144531 208.410156 75.1875 207.453125 75.1875 206.273438 C 75.1875 176.300781 86.867188 148.121094 108.082031 126.925781 C 129.292969 105.730469 157.5 94.058594 187.5 94.058594 C 188.679688 94.058594 189.636719 95.015625 189.636719 96.195312 C 189.636719 97.375 188.679688 98.328125 187.5 98.328125 C 158.640625 98.328125 131.511719 109.558594 111.105469 129.945312 C 90.699219 150.335938 79.460938 177.441406 79.460938 206.273438 C 79.460938 207.453125 78.503906 208.410156 77.324219 208.410156 " fill-opacity="1" fill-rule="nonzero"/><path fill="#ffffff" d="M 99.269531 208.410156 C 98.085938 208.410156 97.128906 207.453125 97.128906 206.273438 C 97.128906 182.15625 106.53125 159.484375 123.597656 142.429688 C 140.667969 125.375 163.359375 115.984375 187.5 115.984375 C 188.679688 115.984375 189.636719 116.9375 189.636719 118.121094 C 189.636719 119.300781 188.679688 120.253906 187.5 120.253906 C 164.503906 120.253906 142.882812 129.203125 126.621094 145.449219 C 110.359375 161.695312 101.40625 183.296875 101.40625 206.273438 C 101.40625 207.453125 100.449219 208.410156 99.269531 208.410156 " fill-opacity="1" fill-rule="nonzero"/><path fill="#ffffff" d="M 187.5 318.492188 C 186.320312 318.492188 185.363281 317.535156 185.363281 316.355469 C 185.363281 315.175781 186.320312 314.222656 187.5 314.222656 C 216.355469 314.222656 243.488281 302.992188 263.894531 282.605469 C 284.300781 262.214844 295.539062 235.109375 295.539062 206.273438 C 295.539062 205.09375 296.496094 204.140625 297.675781 204.140625 C 298.855469 204.140625 299.8125 205.09375 299.8125 206.273438 C 299.8125 236.25 288.132812 264.429688 266.917969 285.625 C 245.707031 306.820312 217.5 318.492188 187.5 318.492188 " fill-opacity="1" fill-rule="nonzero"/><path fill="#ffffff" d="M 187.5 296.566406 C 186.320312 296.566406 185.363281 295.609375 185.363281 294.429688 C 185.363281 293.25 186.320312 292.296875 187.5 292.296875 C 210.496094 292.296875 232.117188 283.347656 248.378906 267.101562 C 264.640625 250.855469 273.59375 229.253906 273.59375 206.273438 C 273.59375 205.09375 274.550781 204.140625 275.730469 204.140625 C 276.914062 204.140625 277.871094 205.09375 277.871094 206.273438 C 277.871094 230.394531 268.46875 253.066406 251.402344 270.121094 C 234.332031 287.175781 211.640625 296.566406 187.5 296.566406 " fill-opacity="1" fill-rule="nonzero"/></svg>