<svg xmlns="http://www.w3.org/2000/svg" xmlns:xlink="http://www.w3.org/1999/xlink" width="500" zoomAndPan="magnify" viewBox="0 0 375 374.999991" height="500" preserveAspectRatio="xMidYMid meet" version="1.0"><path fill="#ffffff" d="M 295.285156 98.269531 C 290.71875 95.046875 284.046875 93.113281 278.019531 93.816406 C 279.015625 91.0625 279.132812 87.835938 278.605469 84.847656 C 277.257812 77.695312 272.636719 71.128906 267.660156 66.03125 C 263.035156 61.28125 257.183594 56.828125 250.804688 54.835938 C 243.957031 52.726562 235.761719 54.015625 228.972656 55.65625 C 223.527344 57.003906 216.5625 59.640625 211.707031 63.863281 C 211.003906 61.929688 210.007812 60.050781 209.128906 58.527344 C 207.082031 55.011719 204.449219 51.785156 201.347656 49.148438 C 194.851562 43.640625 186.832031 40.648438 178.34375 39.945312 C 162.191406 38.597656 145.277344 46.101562 133.863281 57.355469 C 128.828125 62.28125 124.90625 68.375 125.023438 75.234375 C 119.992188 72.773438 114.195312 71.835938 108.167969 72.714844 C 94.765625 74.589844 82.355469 83.148438 73.8125 93.40625 C 64.621094 104.367188 60.292969 116.851562 62.046875 131.214844 C 63.921875 146.453125 71.238281 162.867188 86.394531 168.847656 C 94.0625 171.835938 102.902344 172.363281 110.976562 171.191406 C 115.835938 170.488281 123.621094 168.375 127.660156 164.15625 C 128.359375 166.558594 129.355469 168.847656 130.761719 170.957031 C 135.734375 178.457031 143.988281 182.914062 152.300781 185.726562 C 170.96875 192.058594 194.792969 190.417969 212.058594 180.6875 C 218.613281 176.992188 224.523438 171.601562 227.683594 164.742188 C 229.148438 166.734375 230.726562 168.609375 232.777344 170.078125 C 237.632812 173.476562 244.308594 173.710938 249.925781 172.65625 C 259.171875 170.898438 263.269531 163.628906 264.675781 155.480469 C 269.296875 159.527344 275.621094 161.519531 281.824219 160.699219 C 290.425781 159.585938 297.683594 154.191406 302.777344 147.390625 C 314.542969 131.742188 311.324219 109.582031 295.285156 98.269531 Z M 300.4375 132.386719 C 298.386719 139.890625 293.0625 146.980469 285.980469 150.324219 C 277.960938 154.074219 271.992188 150.324219 266.019531 144.871094 C 264.96875 143.933594 263.738281 143.640625 262.625 143.875 C 260.34375 143.230469 257.476562 144.402344 257.417969 147.507812 C 257.242188 155.421875 255.894531 162.808594 247.292969 164.859375 C 243.136719 165.855469 238.980469 165.679688 235.292969 163.453125 C 233.480469 162.339844 231.429688 160.757812 229.617188 159.058594 C 229.734375 158.644531 229.792969 158.234375 229.851562 157.765625 C 230.785156 151.90625 222.007812 149.207031 220.777344 155.246094 C 219.375 162.105469 214.925781 167.085938 208.957031 170.722656 C 202.046875 174.882812 193.679688 177.285156 185.660156 178.398438 C 170.558594 180.453125 150.894531 179.457031 138.660156 169.140625 C 131.871094 163.394531 131.054688 155.949219 131.871094 147.566406 C 131.988281 146.160156 129.824219 145.632812 129.179688 146.863281 C 128.007812 149.207031 127.25 151.730469 126.898438 154.308594 C 126.664062 154.308594 126.429688 154.367188 126.195312 154.484375 C 123.445312 155.539062 121.863281 157.414062 119.464844 158.996094 C 116.773438 160.757812 113.613281 161.695312 110.449219 162.28125 C 104.65625 163.335938 98.335938 163.042969 92.597656 161.636719 C 79.546875 158.46875 72.875 145.808594 70.417969 133.5 C 68.132812 121.894531 70.242188 111.402344 76.972656 101.730469 C 83.351562 92.527344 92.949219 84.554688 103.601562 80.976562 C 108.929688 79.160156 114.839844 78.398438 120.34375 79.804688 C 126.898438 81.449219 131.753906 86.136719 135.675781 91.414062 C 136.671875 92.761719 139.539062 92.058594 138.71875 90.121094 C 136.4375 84.671875 132.867188 80.273438 128.476562 77.226562 C 129.648438 60.8125 150.953125 49.910156 165.058594 47.214844 C 173.835938 45.574219 183.496094 46.511719 191.398438 50.789062 C 195.257812 52.902344 198.652344 55.714844 201.230469 59.230469 C 202.574219 61.046875 203.6875 63.101562 204.625 65.152344 C 205.386719 66.851562 205.910156 68.726562 207.023438 70.132812 C 206.847656 71.484375 208.3125 72.597656 209.480469 71.71875 C 210.417969 71.777344 211.355469 71.363281 211.765625 70.542969 C 211.941406 70.132812 212.117188 69.78125 212.234375 69.371094 C 218.261719 64.683594 225.460938 62.691406 233.128906 61.632812 C 239.976562 60.695312 246.824219 60.578125 252.792969 64.390625 C 258.820312 68.199219 264.207031 73.886719 267.71875 80.097656 C 269.238281 82.796875 270.527344 85.84375 270.46875 89.007812 C 270.410156 91.941406 269.066406 94.519531 267.835938 97.039062 C 267.484375 97.800781 267.484375 98.621094 267.777344 99.324219 C 267.660156 99.441406 267.601562 99.558594 267.484375 99.734375 C 266.546875 101.085938 268.128906 102.375 269.355469 102.199219 C 274.214844 101.554688 278.488281 99.96875 283.402344 101.554688 C 287.441406 102.84375 290.953125 105.421875 293.824219 108.46875 C 299.734375 114.800781 302.71875 123.769531 300.4375 132.386719 Z M 300.4375 132.386719 " fill-opacity="1" fill-rule="nonzero"/><path fill="#ffffff" d="M 142.113281 224.179688 C 142.582031 221.71875 142.757812 218.378906 143.402344 216.441406 C 144.984375 211.871094 138.078125 211.167969 136.847656 214.15625 C 131.519531 218.027344 126.429688 222.65625 122.097656 227.582031 C 117.941406 232.328125 112.96875 239.304688 117.007812 245.574219 C 119.933594 250.089844 125.082031 253.3125 130.117188 249.972656 C 135.03125 246.75 137.492188 239.890625 139.246094 234.613281 C 140.476562 231.214844 141.355469 227.699219 142.113281 224.179688 Z M 136.203125 222.539062 C 135.558594 225.878906 134.800781 229.164062 133.804688 232.386719 C 132.808594 235.550781 131.695312 238.660156 130.058594 241.53125 C 129.238281 242.878906 127.777344 245.574219 125.960938 245.808594 C 123.855469 246.042969 121.335938 242.820312 120.925781 241.121094 C 120.167969 237.898438 122.800781 234.085938 124.496094 231.625 C 128.066406 226.40625 132.867188 222.246094 137.023438 217.558594 C 136.964844 219.023438 136.4375 221.132812 136.203125 222.539062 Z M 136.203125 222.539062 " fill-opacity="1" fill-rule="nonzero"/><path fill="#ffffff" d="M 197.425781 204.425781 C 197.484375 203.898438 197.542969 203.371094 197.601562 202.84375 C 197.601562 202.609375 197.835938 200.96875 197.660156 202.023438 C 198.304688 197.15625 191.570312 196.160156 190.929688 201.085938 C 190.871094 201.320312 190.871094 201.613281 190.8125 201.847656 C 182.617188 210.523438 162.894531 226.054688 175.417969 237.429688 C 179.632812 241.296875 185.132812 242.117188 189.113281 237.429688 C 193.035156 232.796875 194.324219 225.9375 195.316406 220.136719 C 195.960938 216.5 196.429688 212.808594 196.898438 209.117188 C 197.074219 207.472656 197.25 205.949219 197.425781 204.425781 Z M 186.421875 228.636719 C 185.835938 230.335938 185.074219 232.269531 183.847656 233.558594 C 182.96875 234.4375 182.734375 234.554688 181.386719 233.851562 C 175.417969 230.746094 178.695312 224.589844 181.152344 220.136719 C 183.789062 215.328125 187.183594 211.050781 190.34375 206.652344 C 189.582031 214.039062 188.878906 221.542969 186.421875 228.636719 Z M 186.421875 228.636719 " fill-opacity="1" fill-rule="nonzero"/><path fill="#ffffff" d="M 160.433594 250.324219 C 160.140625 249.210938 158.679688 248.625 157.742188 249.5625 C 152.824219 254.425781 148.203125 259.9375 143.929688 265.445312 C 139.949219 270.664062 134.800781 278.460938 136.671875 285.433594 C 138.253906 291.296875 145.625 295.105469 151.128906 291.941406 C 156.628906 288.71875 158.679688 280.921875 160.082031 275.175781 C 161.722656 268.378906 162.25 261.460938 163.652344 254.660156 C 164.179688 252.140625 162.308594 250.5 160.433594 250.324219 Z M 149.839844 283.617188 C 149.136719 284.789062 148.027344 286.257812 146.796875 286.316406 C 145.160156 286.433594 143.402344 284.964844 143.050781 283.382812 C 141.824219 278.226562 147.441406 271.425781 149.957031 267.5 C 151.65625 264.859375 153.996094 262.164062 156.046875 259.292969 C 154.933594 267.675781 154.230469 276.527344 149.839844 283.617188 Z M 149.839844 283.617188 " fill-opacity="1" fill-rule="nonzero"/><path fill="#ffffff" d="M 217.324219 226.992188 C 217.324219 227.347656 217.324219 227.699219 217.324219 228.050781 C 217.148438 228.167969 217.03125 228.285156 216.914062 228.460938 C 209.480469 238.191406 185.191406 261.109375 202.984375 272.070312 C 218.144531 281.449219 221.890625 255.714844 222.828125 246.511719 C 223.46875 240.066406 223.644531 233.558594 223.644531 227.050781 C 223.644531 222.949219 217.382812 222.949219 217.324219 226.992188 Z M 214.164062 259.175781 C 213.519531 261.34375 212.816406 263.6875 211.355469 265.503906 C 210.945312 265.972656 210.066406 266.796875 210.125 266.679688 C 209.773438 266.914062 209.246094 266.855469 208.371094 266.503906 C 201.992188 264.039062 204.742188 257.652344 206.964844 252.726562 C 209.890625 246.335938 213.871094 240.59375 217.207031 234.496094 C 217.089844 242.820312 216.445312 251.261719 214.164062 259.175781 Z M 214.164062 259.175781 " fill-opacity="1" fill-rule="nonzero"/><path fill="#ffffff" d="M 184.546875 289.128906 C 183.964844 289.1875 183.378906 289.539062 183.085938 290.242188 C 179.632812 299.035156 171.613281 305.25 168.277344 314.214844 C 165.9375 320.429688 168.160156 328.929688 174.539062 332.035156 C 186.1875 337.664062 188.292969 311.8125 188.996094 305.835938 C 189.582031 300.792969 190.695312 295.046875 189.640625 289.949219 C 189.171875 287.605469 185.71875 287.3125 184.546875 289.128906 Z M 180.628906 316.679688 C 180.101562 318.964844 179.574219 321.308594 178.636719 323.417969 C 178.285156 324.179688 177.933594 324.886719 177.464844 325.589844 C 177.347656 325.707031 177.292969 325.824219 177.234375 325.882812 C 177.175781 325.824219 177.175781 325.824219 177.117188 325.765625 C 176.882812 325.472656 175.945312 324.472656 175.535156 323.828125 C 173.488281 320.898438 173.835938 318.144531 174.890625 314.800781 C 176.707031 309.351562 180.101562 304.601562 182.851562 299.5625 C 182.207031 305.25 181.914062 310.992188 180.628906 316.679688 Z M 180.628906 316.679688 " fill-opacity="1" fill-rule="nonzero"/></svg>